STARTFONT 2.1
FONT -ucw.cz-Haxor-Tiny-R-Normal--6020-72-72-C-72-ISO10646-1
SIZE 6 72 72
FONTBOUNDINGBOX 5 7 0 -2
STARTPROPERTIES 14
POINT_SIZE 120
PIXEL_SIZE 6
RESOLUTION_X 72
RESOLUTION_Y 72
FONT_ASCENT 5
FONT_DESCENT 2
AVERAGE_WIDTH 100
SPACING "M"
CHARSET_ENCODING "1"
CHARSET_REGISTRY "ISO10646"
FAMILY_NAME "Haxor"
FOUNDRY "ucw.cz"
SETWIDTH_NAME "Normal"
_GBDFED_INFO "Edited with gbdfed 1.6."
ENDPROPERTIES
CHARS 637
STARTCHAR char32
ENCODING 32
SWIDTH 833 0
DWIDTH 5 0
BBX 0 0 0 0
BITMAP
ENDCHAR
STARTCHAR char33
ENCODING 33
SWIDTH 833 0
DWIDTH 5 0
BBX 1 5 2 0
BITMAP
80
80
80
00
80
ENDCHAR
STARTCHAR char34
ENCODING 34
SWIDTH 833 0
DWIDTH 5 0
BBX 3 2 1 3
BITMAP
A0
A0
ENDCHAR
STARTCHAR char35
ENCODING 35
SWIDTH 833 0
DWIDTH 5 0
BBX 5 5 0 0
BITMAP
50
F8
50
F8
50
ENDCHAR
STARTCHAR char36
ENCODING 36
SWIDTH 833 0
DWIDTH 5 0
BBX 3 5 1 0
BITMAP
40
60
C0
60
C0
ENDCHAR
STARTCHAR char37
ENCODING 37
SWIDTH 833 0
DWIDTH 5 0
BBX 5 5 0 0
BITMAP
D0
90
20
48
58
ENDCHAR
STARTCHAR char38
ENCODING 38
SWIDTH 833 0
DWIDTH 5 0
BBX 4 5 0 0
BITMAP
60
90
40
A0
D0
ENDCHAR
STARTCHAR char39
ENCODING 39
SWIDTH 833 0
DWIDTH 5 0
BBX 1 2 2 3
BITMAP
80
80
ENDCHAR
STARTCHAR char40
ENCODING 40
SWIDTH 833 0
DWIDTH 5 0
BBX 2 5 1 0
BITMAP
40
80
80
80
40
ENDCHAR
STARTCHAR char41
ENCODING 41
SWIDTH 833 0
DWIDTH 5 0
BBX 2 5 1 0
BITMAP
80
40
40
40
80
ENDCHAR
STARTCHAR char42
ENCODING 42
SWIDTH 833 0
DWIDTH 5 0
BBX 3 3 0 1
BITMAP
A0
40
A0
ENDCHAR
STARTCHAR char43
ENCODING 43
SWIDTH 833 0
DWIDTH 5 0
BBX 3 3 0 1
BITMAP
40
E0
40
ENDCHAR
STARTCHAR char44
ENCODING 44
SWIDTH 833 0
DWIDTH 5 0
BBX 4 2 0 -1
BITMAP
30
10
ENDCHAR
STARTCHAR char45
ENCODING 45
SWIDTH 833 0
DWIDTH 5 0
BBX 3 1 0 2
BITMAP
E0
ENDCHAR
STARTCHAR char46
ENCODING 46
SWIDTH 833 0
DWIDTH 5 0
BBX 3 1 0 0
BITMAP
20
ENDCHAR
STARTCHAR char47
ENCODING 47
SWIDTH 833 0
DWIDTH 5 0
BBX 4 5 0 0
BITMAP
10
10
20
40
40
ENDCHAR
STARTCHAR char48
ENCODING 48
SWIDTH 833 0
DWIDTH 5 0
BBX 4 5 0 0
BITMAP
60
B0
90
D0
60
ENDCHAR
STARTCHAR char49
ENCODING 49
SWIDTH 833 0
DWIDTH 5 0
BBX 3 5 1 0
BITMAP
40
C0
40
40
E0
ENDCHAR
STARTCHAR char50
ENCODING 50
SWIDTH 833 0
DWIDTH 5 0
BBX 4 5 0 0
BITMAP
E0
10
60
80
F0
ENDCHAR
STARTCHAR char51
ENCODING 51
SWIDTH 833 0
DWIDTH 5 0
BBX 4 5 0 0
BITMAP
E0
10
60
10
E0
ENDCHAR
STARTCHAR char52
ENCODING 52
SWIDTH 833 0
DWIDTH 5 0
BBX 4 5 0 0
BITMAP
20
60
A0
F0
20
ENDCHAR
STARTCHAR char53
ENCODING 53
SWIDTH 833 0
DWIDTH 5 0
BBX 4 5 0 0
BITMAP
F0
80
E0
10
E0
ENDCHAR
STARTCHAR char54
ENCODING 54
SWIDTH 833 0
DWIDTH 5 0
BBX 4 5 0 0
BITMAP
60
80
E0
90
60
ENDCHAR
STARTCHAR char55
ENCODING 55
SWIDTH 833 0
DWIDTH 5 0
BBX 4 5 0 0
BITMAP
F0
10
20
40
40
ENDCHAR
STARTCHAR char56
ENCODING 56
SWIDTH 833 0
DWIDTH 5 0
BBX 4 5 0 0
BITMAP
60
90
60
90
60
ENDCHAR
STARTCHAR char57
ENCODING 57
SWIDTH 833 0
DWIDTH 5 0
BBX 4 5 0 0
BITMAP
60
90
70
10
60
ENDCHAR
STARTCHAR char58
ENCODING 58
SWIDTH 833 0
DWIDTH 5 0
BBX 1 3 2 1
BITMAP
80
00
80
ENDCHAR
STARTCHAR char59
ENCODING 59
SWIDTH 833 0
DWIDTH 5 0
BBX 1 4 2 0
BITMAP
80
00
80
80
ENDCHAR
STARTCHAR char60
ENCODING 60
SWIDTH 833 0
DWIDTH 5 0
BBX 4 5 0 0
BITMAP
10
20
40
20
10
ENDCHAR
STARTCHAR char61
ENCODING 61
SWIDTH 833 0
DWIDTH 5 0
BBX 4 3 1 1
BITMAP
F0
00
F0
ENDCHAR
STARTCHAR char62
ENCODING 62
SWIDTH 833 0
DWIDTH 5 0
BBX 4 5 0 0
BITMAP
40
20
10
20
40
ENDCHAR
STARTCHAR char63
ENCODING 63
SWIDTH 833 0
DWIDTH 5 0
BBX 4 5 0 0
BITMAP
E0
10
60
00
40
ENDCHAR
STARTCHAR char64
ENCODING 64
SWIDTH 833 0
DWIDTH 5 0
BBX 4 5 0 0
BITMAP
60
90
B0
80
70
ENDCHAR
STARTCHAR char65
ENCODING 65
SWIDTH 833 0
DWIDTH 5 0
BBX 4 5 0 0
BITMAP
60
90
F0
90
90
ENDCHAR
STARTCHAR char66
ENCODING 66
SWIDTH 833 0
DWIDTH 5 0
BBX 4 5 0 0
BITMAP
E0
90
E0
90
E0
ENDCHAR
STARTCHAR char67
ENCODING 67
SWIDTH 833 0
DWIDTH 5 0
BBX 4 5 0 0
BITMAP
60
90
80
90
60
ENDCHAR
STARTCHAR char68
ENCODING 68
SWIDTH 833 0
DWIDTH 5 0
BBX 4 5 0 0
BITMAP
E0
90
90
90
E0
ENDCHAR
STARTCHAR char69
ENCODING 69
SWIDTH 833 0
DWIDTH 5 0
BBX 4 5 0 0
BITMAP
F0
80
E0
80
F0
ENDCHAR
STARTCHAR char70
ENCODING 70
SWIDTH 833 0
DWIDTH 5 0
BBX 4 5 0 0
BITMAP
F0
80
E0
80
80
ENDCHAR
STARTCHAR char71
ENCODING 71
SWIDTH 833 0
DWIDTH 5 0
BBX 4 5 0 0
BITMAP
60
80
B0
90
60
ENDCHAR
STARTCHAR char72
ENCODING 72
SWIDTH 833 0
DWIDTH 5 0
BBX 4 5 0 0
BITMAP
90
90
F0
90
90
ENDCHAR
STARTCHAR char73
ENCODING 73
SWIDTH 833 0
DWIDTH 5 0
BBX 3 5 1 0
BITMAP
E0
40
40
40
E0
ENDCHAR
STARTCHAR char74
ENCODING 74
SWIDTH 833 0
DWIDTH 5 0
BBX 4 5 0 0
BITMAP
F0
10
10
90
60
ENDCHAR
STARTCHAR char75
ENCODING 75
SWIDTH 833 0
DWIDTH 5 0
BBX 4 5 0 0
BITMAP
90
A0
C0
A0
90
ENDCHAR
STARTCHAR char76
ENCODING 76
SWIDTH 833 0
DWIDTH 5 0
BBX 4 5 0 0
BITMAP
80
80
80
80
F0
ENDCHAR
STARTCHAR char77
ENCODING 77
SWIDTH 833 0
DWIDTH 5 0
BBX 4 5 0 0
BITMAP
90
F0
90
90
90
ENDCHAR
STARTCHAR char78
ENCODING 78
SWIDTH 833 0
DWIDTH 5 0
BBX 4 5 0 0
BITMAP
90
D0
B0
90
90
ENDCHAR
STARTCHAR char79
ENCODING 79
SWIDTH 833 0
DWIDTH 5 0
BBX 4 5 0 0
BITMAP
60
90
90
90
60
ENDCHAR
STARTCHAR char80
ENCODING 80
SWIDTH 833 0
DWIDTH 5 0
BBX 4 5 0 0
BITMAP
E0
90
E0
80
80
ENDCHAR
STARTCHAR char81
ENCODING 81
SWIDTH 833 0
DWIDTH 5 0
BBX 4 5 0 0
BITMAP
60
90
90
A0
50
ENDCHAR
STARTCHAR char82
ENCODING 82
SWIDTH 833 0
DWIDTH 5 0
BBX 4 5 0 0
BITMAP
E0
90
E0
A0
90
ENDCHAR
STARTCHAR char83
ENCODING 83
SWIDTH 833 0
DWIDTH 5 0
BBX 4 5 0 0
BITMAP
70
80
60
10
E0
ENDCHAR
STARTCHAR char84
ENCODING 84
SWIDTH 833 0
DWIDTH 5 0
BBX 3 5 1 0
BITMAP
E0
40
40
40
40
ENDCHAR
STARTCHAR char85
ENCODING 85
SWIDTH 833 0
DWIDTH 5 0
BBX 4 5 0 0
BITMAP
90
90
90
90
60
ENDCHAR
STARTCHAR char86
ENCODING 86
SWIDTH 833 0
DWIDTH 5 0
BBX 5 5 0 0
BITMAP
88
88
50
50
20
ENDCHAR
STARTCHAR char87
ENCODING 87
SWIDTH 833 0
DWIDTH 5 0
BBX 5 5 0 0
BITMAP
88
88
A8
A8
50
ENDCHAR
STARTCHAR char88
ENCODING 88
SWIDTH 833 0
DWIDTH 5 0
BBX 4 5 0 0
BITMAP
90
90
60
90
90
ENDCHAR
STARTCHAR char89
ENCODING 89
SWIDTH 833 0
DWIDTH 5 0
BBX 3 5 1 0
BITMAP
A0
A0
40
40
40
ENDCHAR
STARTCHAR char90
ENCODING 90
SWIDTH 833 0
DWIDTH 5 0
BBX 4 5 0 0
BITMAP
F0
10
60
80
F0
ENDCHAR
STARTCHAR char91
ENCODING 91
SWIDTH 833 0
DWIDTH 5 0
BBX 3 5 0 0
BITMAP
E0
80
80
80
E0
ENDCHAR
STARTCHAR char92
ENCODING 92
SWIDTH 833 0
DWIDTH 5 0
BBX 3 5 0 0
BITMAP
80
80
40
20
20
ENDCHAR
STARTCHAR char93
ENCODING 93
SWIDTH 833 0
DWIDTH 5 0
BBX 3 5 0 0
BITMAP
E0
20
20
20
E0
ENDCHAR
STARTCHAR char94
ENCODING 94
SWIDTH 833 0
DWIDTH 5 0
BBX 3 2 1 3
BITMAP
40
A0
ENDCHAR
STARTCHAR char95
ENCODING 95
SWIDTH 833 0
DWIDTH 5 0
BBX 4 1 0 0
BITMAP
F0
ENDCHAR
STARTCHAR char96
ENCODING 96
SWIDTH 833 0
DWIDTH 5 0
BBX 2 2 2 3
BITMAP
80
40
ENDCHAR
STARTCHAR char97
ENCODING 97
SWIDTH 833 0
DWIDTH 5 0
BBX 4 4 0 0
BITMAP
60
90
90
70
ENDCHAR
STARTCHAR char98
ENCODING 98
SWIDTH 833 0
DWIDTH 5 0
BBX 4 5 0 0
BITMAP
80
E0
90
90
E0
ENDCHAR
STARTCHAR char99
ENCODING 99
SWIDTH 833 0
DWIDTH 5 0
BBX 4 4 0 0
BITMAP
70
80
80
70
ENDCHAR
STARTCHAR char100
ENCODING 100
SWIDTH 833 0
DWIDTH 5 0
BBX 4 5 0 0
BITMAP
10
70
90
90
70
ENDCHAR
STARTCHAR char101
ENCODING 101
SWIDTH 833 0
DWIDTH 5 0
BBX 4 4 0 0
BITMAP
60
F0
80
70
ENDCHAR
STARTCHAR char102
ENCODING 102
SWIDTH 833 0
DWIDTH 5 0
BBX 4 6 0 -2
BITMAP
70
80
E0
80
80
80
ENDCHAR
STARTCHAR char103
ENCODING 103
SWIDTH 833 0
DWIDTH 5 0
BBX 4 6 0 -2
BITMAP
70
90
90
70
10
60
ENDCHAR
STARTCHAR char104
ENCODING 104
SWIDTH 833 0
DWIDTH 5 0
BBX 4 5 0 0
BITMAP
80
E0
90
90
90
ENDCHAR
STARTCHAR char105
ENCODING 105
SWIDTH 833 0
DWIDTH 5 0
BBX 3 4 1 0
BITMAP
C0
40
40
E0
ENDCHAR
STARTCHAR char106
ENCODING 106
SWIDTH 833 0
DWIDTH 5 0
BBX 4 7 0 -2
BITMAP
10
00
30
10
10
90
60
ENDCHAR
STARTCHAR char107
ENCODING 107
SWIDTH 833 0
DWIDTH 5 0
BBX 4 5 0 0
BITMAP
80
B0
C0
A0
90
ENDCHAR
STARTCHAR char108
ENCODING 108
SWIDTH 833 0
DWIDTH 5 0
BBX 3 5 1 0
BITMAP
80
80
80
80
60
ENDCHAR
STARTCHAR char109
ENCODING 109
SWIDTH 833 0
DWIDTH 5 0
BBX 5 4 0 0
BITMAP
50
A8
A8
A8
ENDCHAR
STARTCHAR char110
ENCODING 110
SWIDTH 833 0
DWIDTH 5 0
BBX 4 4 0 0
BITMAP
E0
90
90
90
ENDCHAR
STARTCHAR char111
ENCODING 111
SWIDTH 833 0
DWIDTH 5 0
BBX 4 4 0 0
BITMAP
60
90
90
60
ENDCHAR
STARTCHAR char112
ENCODING 112
SWIDTH 833 0
DWIDTH 5 0
BBX 4 6 0 -2
BITMAP
E0
90
90
E0
80
80
ENDCHAR
STARTCHAR char113
ENCODING 113
SWIDTH 833 0
DWIDTH 5 0
BBX 4 6 0 -2
BITMAP
70
90
90
70
10
10
ENDCHAR
STARTCHAR char114
ENCODING 114
SWIDTH 833 0
DWIDTH 5 0
BBX 4 4 0 0
BITMAP
A0
D0
80
80
ENDCHAR
STARTCHAR char115
ENCODING 115
SWIDTH 833 0
DWIDTH 5 0
BBX 4 4 0 0
BITMAP
70
C0
30
E0
ENDCHAR
STARTCHAR char116
ENCODING 116
SWIDTH 833 0
DWIDTH 5 0
BBX 4 5 0 0
BITMAP
40
F0
40
40
30
ENDCHAR
STARTCHAR char117
ENCODING 117
SWIDTH 833 0
DWIDTH 5 0
BBX 4 4 0 0
BITMAP
90
90
90
70
ENDCHAR
STARTCHAR char118
ENCODING 118
SWIDTH 833 0
DWIDTH 5 0
BBX 4 4 0 0
BITMAP
90
90
90
60
ENDCHAR
STARTCHAR char119
ENCODING 119
SWIDTH 833 0
DWIDTH 5 0
BBX 5 4 0 0
BITMAP
88
A8
A8
50
ENDCHAR
STARTCHAR char120
ENCODING 120
SWIDTH 833 0
DWIDTH 5 0
BBX 4 4 0 0
BITMAP
90
60
60
90
ENDCHAR
STARTCHAR char121
ENCODING 121
SWIDTH 833 0
DWIDTH 5 0
BBX 4 6 0 -2
BITMAP
90
90
90
70
10
60
ENDCHAR
STARTCHAR char122
ENCODING 122
SWIDTH 833 0
DWIDTH 5 0
BBX 4 4 0 0
BITMAP
F0
20
40
F0
ENDCHAR
STARTCHAR char123
ENCODING 123
SWIDTH 833 0
DWIDTH 5 0
BBX 2 5 1 0
BITMAP
40
80
40
80
40
ENDCHAR
STARTCHAR char124
ENCODING 124
SWIDTH 833 0
DWIDTH 5 0
BBX 3 5 0 0
BITMAP
20
20
20
20
20
ENDCHAR
STARTCHAR char125
ENCODING 125
SWIDTH 833 0
DWIDTH 5 0
BBX 2 5 1 0
BITMAP
80
40
80
40
80
ENDCHAR
STARTCHAR char126
ENCODING 126
SWIDTH 833 0
DWIDTH 5 0
BBX 4 2 0 2
BITMAP
50
A0
ENDCHAR
STARTCHAR char160
ENCODING 160
SWIDTH 833 0
DWIDTH 5 0
BBX 0 0 0 0
BITMAP
ENDCHAR
STARTCHAR char161
ENCODING 161
SWIDTH 833 0
DWIDTH 5 0
BBX 2 5 2 0
BITMAP
80
00
80
80
80
ENDCHAR
STARTCHAR char162
ENCODING 162
SWIDTH 833 0
DWIDTH 5 0
BBX 4 6 0 -1
BITMAP
20
70
A0
A0
70
20
ENDCHAR
STARTCHAR char163
ENCODING 163
SWIDTH 833 0
DWIDTH 5 0
BBX 5 5 0 0
BITMAP
30
40
E0
48
F0
ENDCHAR
STARTCHAR char164
ENCODING 164
SWIDTH 833 0
DWIDTH 5 0
BBX 5 5 0 0
BITMAP
A8
70
D8
70
A8
ENDCHAR
STARTCHAR char165
ENCODING 165
SWIDTH 833 0
DWIDTH 5 0
BBX 3 5 1 0
BITMAP
A0
40
E0
40
E0
ENDCHAR
STARTCHAR char166
ENCODING 166
SWIDTH 833 0
DWIDTH 5 0
BBX 3 5 0 0
BITMAP
20
20
00
20
20
ENDCHAR
STARTCHAR char167
ENCODING 167
SWIDTH 833 0
DWIDTH 5 0
BBX 3 5 1 0
BITMAP
E0
40
A0
40
E0
ENDCHAR
STARTCHAR char168
ENCODING 168
SWIDTH 833 0
DWIDTH 5 0
BBX 3 1 1 4
BITMAP
A0
ENDCHAR
STARTCHAR char169
ENCODING 169
SWIDTH 833 0
DWIDTH 5 0
BBX 5 5 0 0
BITMAP
70
88
A8
88
70
ENDCHAR
STARTCHAR char170
ENCODING 170
SWIDTH 833 0
DWIDTH 5 0
BBX 4 4 1 1
BITMAP
40
20
E0
50
ENDCHAR
STARTCHAR char171
ENCODING 171
SWIDTH 833 0
DWIDTH 5 0
BBX 5 5 0 0
BITMAP
28
50
A0
50
28
ENDCHAR
STARTCHAR char172
ENCODING 172
SWIDTH 833 0
DWIDTH 5 0
BBX 3 2 1 1
BITMAP
E0
20
ENDCHAR
STARTCHAR char173
ENCODING 173
SWIDTH 833 0
DWIDTH 5 0
BBX 4 1 0 2
BITMAP
F0
ENDCHAR
STARTCHAR char174
ENCODING 174
SWIDTH 833 0
DWIDTH 5 0
BBX 5 5 0 0
BITMAP
70
88
A8
A8
70
ENDCHAR
STARTCHAR char175
ENCODING 175
SWIDTH 833 0
DWIDTH 5 0
BBX 4 1 0 4
BITMAP
F0
ENDCHAR
STARTCHAR char176
ENCODING 176
SWIDTH 833 0
DWIDTH 5 0
BBX 3 3 1 2
BITMAP
40
A0
40
ENDCHAR
STARTCHAR char177
ENCODING 177
SWIDTH 833 0
DWIDTH 5 0
BBX 3 5 0 0
BITMAP
40
E0
40
00
E0
ENDCHAR
STARTCHAR char178
ENCODING 178
SWIDTH 833 0
DWIDTH 5 0
BBX 3 4 0 1
BITMAP
C0
20
40
E0
ENDCHAR
STARTCHAR char179
ENCODING 179
SWIDTH 833 0
DWIDTH 5 0
BBX 3 4 0 1
BITMAP
C0
60
20
C0
ENDCHAR
STARTCHAR char180
ENCODING 180
SWIDTH 833 0
DWIDTH 5 0
BBX 2 2 2 3
BITMAP
40
80
ENDCHAR
STARTCHAR char181
ENCODING 181
SWIDTH 833 0
DWIDTH 5 0
BBX 4 6 0 -2
BITMAP
A0
A0
A0
D0
80
80
ENDCHAR
STARTCHAR char182
ENCODING 182
SWIDTH 833 0
DWIDTH 5 0
BBX 4 5 0 0
BITMAP
F0
D0
D0
50
50
ENDCHAR
STARTCHAR char183
ENCODING 183
SWIDTH 833 0
DWIDTH 5 0
BBX 1 1 2 2
BITMAP
80
ENDCHAR
STARTCHAR char184
ENCODING 184
SWIDTH 833 0
DWIDTH 5 0
BBX 2 2 2 -2
BITMAP
40
C0
ENDCHAR
STARTCHAR char185
ENCODING 185
SWIDTH 833 0
DWIDTH 5 0
BBX 3 4 0 1
BITMAP
40
C0
40
E0
ENDCHAR
STARTCHAR char186
ENCODING 186
SWIDTH 833 0
DWIDTH 5 0
BBX 3 4 0 1
BITMAP
40
A0
A0
40
ENDCHAR
STARTCHAR char187
ENCODING 187
SWIDTH 833 0
DWIDTH 5 0
BBX 5 5 0 0
BITMAP
A0
50
28
50
A0
ENDCHAR
STARTCHAR char188
ENCODING 188
SWIDTH 833 0
DWIDTH 5 0
BBX 4 2 0 0
BITMAP
30
30
ENDCHAR
STARTCHAR char189
ENCODING 189
SWIDTH 833 0
DWIDTH 5 0
BBX 4 4 0 0
BITMAP
30
30
30
30
ENDCHAR
STARTCHAR char190
ENCODING 190
SWIDTH 833 0
DWIDTH 5 0
BBX 4 4 0 0
BITMAP
30
30
F0
F0
ENDCHAR
STARTCHAR char191
ENCODING 191
SWIDTH 833 0
DWIDTH 5 0
BBX 4 5 0 0
BITMAP
40
00
60
10
E0
ENDCHAR
STARTCHAR char192
ENCODING 192
SWIDTH 833 0
DWIDTH 5 0
BBX 4 5 0 0
BITMAP
A0
50
70
50
50
ENDCHAR
STARTCHAR char193
ENCODING 193
SWIDTH 833 0
DWIDTH 5 0
BBX 4 5 0 0
BITMAP
50
A0
E0
A0
A0
ENDCHAR
STARTCHAR char194
ENCODING 194
SWIDTH 833 0
DWIDTH 5 0
BBX 4 5 0 0
BITMAP
60
60
90
F0
90
ENDCHAR
STARTCHAR char195
ENCODING 195
SWIDTH 833 0
DWIDTH 5 0
BBX 4 5 0 0
BITMAP
60
60
90
F0
90
ENDCHAR
STARTCHAR char196
ENCODING 196
SWIDTH 833 0
DWIDTH 5 0
BBX 4 5 0 0
BITMAP
90
60
90
F0
90
ENDCHAR
STARTCHAR char197
ENCODING 197
SWIDTH 833 0
DWIDTH 5 0
BBX 4 5 0 0
BITMAP
60
60
90
F0
90
ENDCHAR
STARTCHAR char198
ENCODING 198
SWIDTH 833 0
DWIDTH 5 0
BBX 4 5 0 0
BITMAP
70
A0
F0
A0
B0
ENDCHAR
STARTCHAR char199
ENCODING 199
SWIDTH 833 0
DWIDTH 5 0
BBX 4 7 0 -2
BITMAP
60
90
80
90
60
20
40
ENDCHAR
STARTCHAR char200
ENCODING 200
SWIDTH 833 0
DWIDTH 5 0
BBX 4 5 0 0
BITMAP
B0
40
60
40
70
ENDCHAR
STARTCHAR char201
ENCODING 201
SWIDTH 833 0
DWIDTH 5 0
BBX 4 5 0 0
BITMAP
D0
80
E0
80
F0
ENDCHAR
STARTCHAR char202
ENCODING 202
SWIDTH 833 0
DWIDTH 5 0
BBX 5 5 0 0
BITMAP
D8
80
E0
80
F0
ENDCHAR
STARTCHAR char203
ENCODING 203
SWIDTH 833 0
DWIDTH 5 0
BBX 5 5 0 0
BITMAP
A8
80
E0
80
F0
ENDCHAR
STARTCHAR char204
ENCODING 204
SWIDTH 833 0
DWIDTH 5 0
BBX 4 5 0 0
BITMAP
B0
20
20
20
70
ENDCHAR
STARTCHAR char205
ENCODING 205
SWIDTH 833 0
DWIDTH 5 0
BBX 5 5 0 0
BITMAP
E8
40
40
40
E0
ENDCHAR
STARTCHAR char206
ENCODING 206
SWIDTH 833 0
DWIDTH 5 0
BBX 3 5 1 0
BITMAP
E0
E0
40
40
E0
ENDCHAR
STARTCHAR char207
ENCODING 207
SWIDTH 833 0
DWIDTH 5 0
BBX 3 5 1 0
BITMAP
A0
E0
40
40
E0
ENDCHAR
STARTCHAR char208
ENCODING 208
SWIDTH 833 0
DWIDTH 5 0
BBX 4 5 0 0
BITMAP
E0
90
D0
90
E0
ENDCHAR
STARTCHAR char209
ENCODING 209
SWIDTH 833 0
DWIDTH 5 0
BBX 4 5 0 0
BITMAP
60
90
D0
B0
90
ENDCHAR
STARTCHAR char210
ENCODING 210
SWIDTH 833 0
DWIDTH 5 0
BBX 4 5 0 0
BITMAP
A0
50
50
50
20
ENDCHAR
STARTCHAR char211
ENCODING 211
SWIDTH 833 0
DWIDTH 5 0
BBX 4 5 0 0
BITMAP
50
A0
A0
A0
40
ENDCHAR
STARTCHAR char212
ENCODING 212
SWIDTH 833 0
DWIDTH 5 0
BBX 4 5 0 0
BITMAP
60
60
90
90
60
ENDCHAR
STARTCHAR char213
ENCODING 213
SWIDTH 833 0
DWIDTH 5 0
BBX 4 5 0 0
BITMAP
60
60
90
90
60
ENDCHAR
STARTCHAR char214
ENCODING 214
SWIDTH 833 0
DWIDTH 5 0
BBX 4 5 0 0
BITMAP
90
60
90
90
60
ENDCHAR
STARTCHAR char215
ENCODING 215
SWIDTH 833 0
DWIDTH 5 0
BBX 3 3 1 1
BITMAP
A0
40
A0
ENDCHAR
STARTCHAR char216
ENCODING 216
SWIDTH 833 0
DWIDTH 5 0
BBX 5 5 0 0
BITMAP
70
98
A8
C8
70
ENDCHAR
STARTCHAR char217
ENCODING 217
SWIDTH 833 0
DWIDTH 5 0
BBX 4 5 0 0
BITMAP
40
90
90
90
60
ENDCHAR
STARTCHAR char218
ENCODING 218
SWIDTH 833 0
DWIDTH 5 0
BBX 4 5 0 0
BITMAP
20
90
90
90
60
ENDCHAR
STARTCHAR char219
ENCODING 219
SWIDTH 833 0
DWIDTH 5 0
BBX 4 5 0 0
BITMAP
60
00
90
90
60
ENDCHAR
STARTCHAR char220
ENCODING 220
SWIDTH 833 0
DWIDTH 5 0
BBX 4 5 0 0
BITMAP
50
00
90
90
60
ENDCHAR
STARTCHAR char221
ENCODING 221
SWIDTH 833 0
DWIDTH 5 0
BBX 3 5 1 0
BITMAP
40
A0
A0
40
40
ENDCHAR
STARTCHAR char222
ENCODING 222
SWIDTH 833 0
DWIDTH 5 0
BBX 4 5 0 0
BITMAP
80
E0
90
E0
80
ENDCHAR
STARTCHAR char223
ENCODING 223
SWIDTH 833 0
DWIDTH 5 0
BBX 4 5 0 0
BITMAP
40
A0
A0
90
B0
ENDCHAR
STARTCHAR char224
ENCODING 224
SWIDTH 833 0
DWIDTH 5 0
BBX 4 5 0 0
BITMAP
80
60
90
90
70
ENDCHAR
STARTCHAR char225
ENCODING 225
SWIDTH 833 0
DWIDTH 5 0
BBX 4 5 0 0
BITMAP
10
60
90
90
70
ENDCHAR
STARTCHAR char226
ENCODING 226
SWIDTH 833 0
DWIDTH 5 0
BBX 4 5 0 0
BITMAP
60
60
90
90
70
ENDCHAR
STARTCHAR char227
ENCODING 227
SWIDTH 833 0
DWIDTH 5 0
BBX 4 5 0 0
BITMAP
60
60
90
90
70
ENDCHAR
STARTCHAR char228
ENCODING 228
SWIDTH 833 0
DWIDTH 5 0
BBX 4 5 0 0
BITMAP
90
60
90
90
70
ENDCHAR
STARTCHAR char229
ENCODING 229
SWIDTH 833 0
DWIDTH 5 0
BBX 4 5 0 0
BITMAP
60
60
90
90
70
ENDCHAR
STARTCHAR char230
ENCODING 230
SWIDTH 833 0
DWIDTH 5 0
BBX 5 4 0 0
BITMAP
70
B8
A0
78
ENDCHAR
STARTCHAR char231
ENCODING 231
SWIDTH 833 0
DWIDTH 5 0
BBX 4 6 0 -2
BITMAP
70
80
80
70
20
40
ENDCHAR
STARTCHAR char232
ENCODING 232
SWIDTH 833 0
DWIDTH 5 0
BBX 4 5 0 0
BITMAP
80
60
F0
80
60
ENDCHAR
STARTCHAR char233
ENCODING 233
SWIDTH 833 0
DWIDTH 5 0
BBX 4 5 0 0
BITMAP
10
60
F0
80
60
ENDCHAR
STARTCHAR char234
ENCODING 234
SWIDTH 833 0
DWIDTH 5 0
BBX 4 5 0 0
BITMAP
60
60
F0
80
60
ENDCHAR
STARTCHAR char235
ENCODING 235
SWIDTH 833 0
DWIDTH 5 0
BBX 4 5 0 0
BITMAP
90
60
F0
80
60
ENDCHAR
STARTCHAR char236
ENCODING 236
SWIDTH 833 0
DWIDTH 5 0
BBX 3 5 1 0
BITMAP
80
40
C0
40
E0
ENDCHAR
STARTCHAR char237
ENCODING 237
SWIDTH 833 0
DWIDTH 5 0
BBX 3 5 1 0
BITMAP
20
40
C0
40
E0
ENDCHAR
STARTCHAR char238
ENCODING 238
SWIDTH 833 0
DWIDTH 5 0
BBX 4 5 0 0
BITMAP
60
00
60
20
70
ENDCHAR
STARTCHAR char239
ENCODING 239
SWIDTH 833 0
DWIDTH 5 0
BBX 3 5 1 0
BITMAP
A0
00
C0
40
E0
ENDCHAR
STARTCHAR char240
ENCODING 240
SWIDTH 833 0
DWIDTH 5 0
BBX 3 5 1 0
BITMAP
40
20
60
A0
40
ENDCHAR
STARTCHAR char241
ENCODING 241
SWIDTH 833 0
DWIDTH 5 0
BBX 4 5 0 0
BITMAP
60
E0
90
90
90
ENDCHAR
STARTCHAR char242
ENCODING 242
SWIDTH 833 0
DWIDTH 5 0
BBX 3 5 1 0
BITMAP
80
40
A0
A0
40
ENDCHAR
STARTCHAR char243
ENCODING 243
SWIDTH 833 0
DWIDTH 5 0
BBX 3 5 1 0
BITMAP
20
40
A0
A0
40
ENDCHAR
STARTCHAR char244
ENCODING 244
SWIDTH 833 0
DWIDTH 5 0
BBX 3 5 1 0
BITMAP
E0
40
A0
A0
40
ENDCHAR
STARTCHAR char245
ENCODING 245
SWIDTH 833 0
DWIDTH 5 0
BBX 3 5 1 0
BITMAP
E0
40
A0
A0
40
ENDCHAR
STARTCHAR char246
ENCODING 246
SWIDTH 833 0
DWIDTH 5 0
BBX 3 5 1 0
BITMAP
A0
40
A0
A0
40
ENDCHAR
STARTCHAR char247
ENCODING 247
SWIDTH 833 0
DWIDTH 5 0
BBX 3 5 1 0
BITMAP
40
00
E0
00
40
ENDCHAR
STARTCHAR char248
ENCODING 248
SWIDTH 833 0
DWIDTH 5 0
BBX 4 4 0 0
BITMAP
60
B0
D0
60
ENDCHAR
STARTCHAR char249
ENCODING 249
SWIDTH 833 0
DWIDTH 5 0
BBX 4 5 0 0
BITMAP
40
20
90
90
70
ENDCHAR
STARTCHAR char250
ENCODING 250
SWIDTH 833 0
DWIDTH 5 0
BBX 4 5 0 0
BITMAP
20
40
90
90
70
ENDCHAR
STARTCHAR char251
ENCODING 251
SWIDTH 833 0
DWIDTH 5 0
BBX 4 5 0 0
BITMAP
60
00
90
90
70
ENDCHAR
STARTCHAR char252
ENCODING 252
SWIDTH 833 0
DWIDTH 5 0
BBX 4 5 0 0
BITMAP
90
00
90
90
70
ENDCHAR
STARTCHAR char253
ENCODING 253
SWIDTH 833 0
DWIDTH 5 0
BBX 4 7 0 -2
BITMAP
20
40
90
90
70
10
60
ENDCHAR
STARTCHAR char254
ENCODING 254
SWIDTH 833 0
DWIDTH 5 0
BBX 4 6 0 -1
BITMAP
80
E0
90
90
E0
80
ENDCHAR
STARTCHAR char255
ENCODING 255
SWIDTH 833 0
DWIDTH 5 0
BBX 4 7 0 -2
BITMAP
90
00
90
90
70
10
60
ENDCHAR
STARTCHAR char256
ENCODING 256
SWIDTH 833 0
DWIDTH 5 0
BBX 4 5 0 0
BITMAP
60
60
90
F0
90
ENDCHAR
STARTCHAR char257
ENCODING 257
SWIDTH 833 0
DWIDTH 5 0
BBX 4 5 0 0
BITMAP
60
60
90
90
70
ENDCHAR
STARTCHAR char258
ENCODING 258
SWIDTH 833 0
DWIDTH 5 0
BBX 4 5 0 0
BITMAP
60
60
90
F0
90
ENDCHAR
STARTCHAR char259
ENCODING 259
SWIDTH 833 0
DWIDTH 5 0
BBX 4 5 0 0
BITMAP
60
60
90
90
70
ENDCHAR
STARTCHAR char260
ENCODING 260
SWIDTH 833 0
DWIDTH 5 0
BBX 4 7 0 -2
BITMAP
60
90
F0
90
90
20
10
ENDCHAR
STARTCHAR char261
ENCODING 261
SWIDTH 833 0
DWIDTH 5 0
BBX 4 6 0 -2
BITMAP
60
90
90
70
40
20
ENDCHAR
STARTCHAR char262
ENCODING 262
SWIDTH 833 0
DWIDTH 5 0
BBX 4 5 0 0
BITMAP
10
60
90
80
60
ENDCHAR
STARTCHAR char263
ENCODING 263
SWIDTH 833 0
DWIDTH 5 0
BBX 4 5 0 0
BITMAP
10
60
80
80
60
ENDCHAR
STARTCHAR char264
ENCODING 264
SWIDTH 833 0
DWIDTH 5 0
BBX 4 5 0 0
BITMAP
60
60
90
80
60
ENDCHAR
STARTCHAR char265
ENCODING 265
SWIDTH 833 0
DWIDTH 5 0
BBX 3 5 0 0
BITMAP
60
60
80
80
60
ENDCHAR
STARTCHAR char266
ENCODING 266
SWIDTH 833 0
DWIDTH 5 0
BBX 4 5 0 0
BITMAP
60
60
90
80
60
ENDCHAR
STARTCHAR char267
ENCODING 267
SWIDTH 833 0
DWIDTH 5 0
BBX 3 5 0 0
BITMAP
60
60
80
80
60
ENDCHAR
STARTCHAR char268
ENCODING 268
SWIDTH 833 0
DWIDTH 5 0
BBX 4 5 0 0
BITMAP
60
60
90
80
60
ENDCHAR
STARTCHAR char269
ENCODING 269
SWIDTH 833 0
DWIDTH 5 0
BBX 3 5 0 0
BITMAP
60
60
80
80
60
ENDCHAR
STARTCHAR char270
ENCODING 270
SWIDTH 833 0
DWIDTH 5 0
BBX 4 5 0 0
BITMAP
60
E0
90
90
E0
ENDCHAR
STARTCHAR char271
ENCODING 271
SWIDTH 833 0
DWIDTH 5 0
BBX 4 5 0 0
BITMAP
30
70
A0
A0
60
ENDCHAR
STARTCHAR char272
ENCODING 272
SWIDTH 833 0
DWIDTH 5 0
BBX 4 5 0 0
BITMAP
E0
90
D0
90
E0
ENDCHAR
STARTCHAR char273
ENCODING 273
SWIDTH 833 0
DWIDTH 5 0
BBX 5 5 0 0
BITMAP
10
70
B8
90
70
ENDCHAR
STARTCHAR char274
ENCODING 274
SWIDTH 833 0
DWIDTH 5 0
BBX 4 5 0 0
BITMAP
D0
80
C0
80
E0
ENDCHAR
STARTCHAR char275
ENCODING 275
SWIDTH 833 0
DWIDTH 5 0
BBX 4 5 0 0
BITMAP
60
60
F0
80
60
ENDCHAR
STARTCHAR char276
ENCODING 276
SWIDTH 833 0
DWIDTH 5 0
BBX 4 5 0 0
BITMAP
D0
90
C0
80
E0
ENDCHAR
STARTCHAR char277
ENCODING 277
SWIDTH 833 0
DWIDTH 5 0
BBX 4 5 0 0
BITMAP
60
60
F0
80
60
ENDCHAR
STARTCHAR char278
ENCODING 278
SWIDTH 833 0
DWIDTH 5 0
BBX 4 5 0 0
BITMAP
D0
80
C0
80
E0
ENDCHAR
STARTCHAR char279
ENCODING 279
SWIDTH 833 0
DWIDTH 5 0
BBX 4 5 0 0
BITMAP
40
60
F0
80
60
ENDCHAR
STARTCHAR char280
ENCODING 280
SWIDTH 833 0
DWIDTH 5 0
BBX 4 7 0 -2
BITMAP
F0
80
E0
80
F0
40
20
ENDCHAR
STARTCHAR char281
ENCODING 281
SWIDTH 833 0
DWIDTH 5 0
BBX 4 6 0 -2
BITMAP
60
F0
80
60
40
20
ENDCHAR
STARTCHAR char282
ENCODING 282
SWIDTH 833 0
DWIDTH 5 0
BBX 4 5 0 0
BITMAP
D0
90
C0
80
E0
ENDCHAR
STARTCHAR char283
ENCODING 283
SWIDTH 833 0
DWIDTH 5 0
BBX 4 5 0 0
BITMAP
60
60
F0
80
60
ENDCHAR
STARTCHAR char284
ENCODING 284
SWIDTH 833 0
DWIDTH 5 0
BBX 4 5 0 0
BITMAP
60
60
80
B0
60
ENDCHAR
STARTCHAR char285
ENCODING 285
SWIDTH 833 0
DWIDTH 5 0
BBX 4 7 0 -2
BITMAP
60
70
90
90
70
10
60
ENDCHAR
STARTCHAR char286
ENCODING 286
SWIDTH 833 0
DWIDTH 5 0
BBX 4 5 0 0
BITMAP
60
60
80
B0
60
ENDCHAR
STARTCHAR char287
ENCODING 287
SWIDTH 833 0
DWIDTH 5 0
BBX 4 7 0 -2
BITMAP
60
70
90
90
70
10
60
ENDCHAR
STARTCHAR char288
ENCODING 288
SWIDTH 833 0
DWIDTH 5 0
BBX 4 5 0 0
BITMAP
20
60
80
B0
60
ENDCHAR
STARTCHAR char289
ENCODING 289
SWIDTH 833 0
DWIDTH 5 0
BBX 4 7 0 -2
BITMAP
20
70
90
90
70
10
60
ENDCHAR
STARTCHAR char290
ENCODING 290
SWIDTH 833 0
DWIDTH 5 0
BBX 4 7 0 -2
BITMAP
60
90
80
B0
60
00
20
ENDCHAR
STARTCHAR char291
ENCODING 291
SWIDTH 833 0
DWIDTH 5 0
BBX 4 7 0 -2
BITMAP
20
00
70
90
70
10
60
ENDCHAR
STARTCHAR char292
ENCODING 292
SWIDTH 833 0
DWIDTH 5 0
BBX 4 5 0 0
BITMAP
60
00
90
F0
90
ENDCHAR
STARTCHAR char293
ENCODING 293
SWIDTH 833 0
DWIDTH 5 0
BBX 4 5 0 0
BITMAP
B0
80
E0
90
90
ENDCHAR
STARTCHAR char294
ENCODING 294
SWIDTH 833 0
DWIDTH 5 0
BBX 4 5 0 0
BITMAP
90
F0
90
F0
90
ENDCHAR
STARTCHAR char295
ENCODING 295
SWIDTH 833 0
DWIDTH 5 0
BBX 4 5 0 0
BITMAP
80
E0
E0
90
90
ENDCHAR
STARTCHAR char296
ENCODING 296
SWIDTH 833 0
DWIDTH 5 0
BBX 3 5 1 0
BITMAP
E0
E0
40
40
E0
ENDCHAR
STARTCHAR char297
ENCODING 297
SWIDTH 833 0
DWIDTH 5 0
BBX 3 5 1 0
BITMAP
C0
00
C0
40
E0
ENDCHAR
STARTCHAR char298
ENCODING 298
SWIDTH 833 0
DWIDTH 5 0
BBX 4 5 0 0
BITMAP
70
70
20
20
70
ENDCHAR
STARTCHAR char299
ENCODING 299
SWIDTH 833 0
DWIDTH 5 0
BBX 4 5 0 0
BITMAP
60
00
60
20
70
ENDCHAR
STARTCHAR char300
ENCODING 300
SWIDTH 833 0
DWIDTH 5 0
BBX 4 5 0 0
BITMAP
70
70
20
20
70
ENDCHAR
STARTCHAR char301
ENCODING 301
SWIDTH 833 0
DWIDTH 5 0
BBX 3 5 1 0
BITMAP
C0
00
C0
40
E0
ENDCHAR
STARTCHAR char302
ENCODING 302
SWIDTH 833 0
DWIDTH 5 0
BBX 3 7 1 -2
BITMAP
E0
40
40
40
E0
80
40
ENDCHAR
STARTCHAR char303
ENCODING 303
SWIDTH 833 0
DWIDTH 5 0
BBX 3 6 1 -2
BITMAP
C0
40
40
E0
80
40
ENDCHAR
STARTCHAR char304
ENCODING 304
SWIDTH 833 0
DWIDTH 5 0
BBX 3 5 1 0
BITMAP
40
E0
40
40
E0
ENDCHAR
STARTCHAR char305
ENCODING 305
SWIDTH 833 0
DWIDTH 5 0
BBX 3 4 1 0
BITMAP
C0
40
40
E0
ENDCHAR
STARTCHAR char306
ENCODING 306
SWIDTH 833 0
DWIDTH 5 0
BBX 4 5 0 0
BITMAP
B0
90
90
D0
A0
ENDCHAR
STARTCHAR char307
ENCODING 307
SWIDTH 833 0
DWIDTH 5 0
BBX 4 6 0 -2
BITMAP
90
00
90
90
10
20
ENDCHAR
STARTCHAR char308
ENCODING 308
SWIDTH 833 0
DWIDTH 5 0
BBX 4 5 0 0
BITMAP
60
F0
10
90
60
ENDCHAR
STARTCHAR char309
ENCODING 309
SWIDTH 833 0
DWIDTH 5 0
BBX 4 6 0 -1
BITMAP
30
00
10
10
90
60
ENDCHAR
STARTCHAR char310
ENCODING 310
SWIDTH 833 0
DWIDTH 5 0
BBX 4 7 0 -2
BITMAP
90
A0
C0
A0
90
00
40
ENDCHAR
STARTCHAR char311
ENCODING 311
SWIDTH 833 0
DWIDTH 5 0
BBX 4 7 0 -2
BITMAP
80
B0
C0
A0
90
00
40
ENDCHAR
STARTCHAR char312
ENCODING 312
SWIDTH 833 0
DWIDTH 5 0
BBX 4 4 0 0
BITMAP
B0
C0
A0
90
ENDCHAR
STARTCHAR char313
ENCODING 313
SWIDTH 833 0
DWIDTH 5 0
BBX 4 5 0 0
BITMAP
A0
80
80
80
F0
ENDCHAR
STARTCHAR char314
ENCODING 314
SWIDTH 833 0
DWIDTH 5 0
BBX 3 5 1 0
BITMAP
A0
80
80
80
60
ENDCHAR
STARTCHAR char315
ENCODING 315
SWIDTH 833 0
DWIDTH 5 0
BBX 4 7 0 -2
BITMAP
80
80
80
80
F0
00
40
ENDCHAR
STARTCHAR char316
ENCODING 316
SWIDTH 833 0
DWIDTH 5 0
BBX 4 7 0 -2
BITMAP
40
40
40
40
30
00
20
ENDCHAR
STARTCHAR char317
ENCODING 317
SWIDTH 833 0
DWIDTH 5 0
BBX 4 5 0 0
BITMAP
A0
A0
80
80
F0
ENDCHAR
STARTCHAR char318
ENCODING 318
SWIDTH 833 0
DWIDTH 5 0
BBX 4 5 0 0
BITMAP
50
50
40
40
30
ENDCHAR
STARTCHAR char319
ENCODING 319
SWIDTH 833 0
DWIDTH 5 0
BBX 4 5 0 0
BITMAP
80
80
A0
80
F0
ENDCHAR
STARTCHAR char320
ENCODING 320
SWIDTH 833 0
DWIDTH 5 0
BBX 4 5 0 0
BITMAP
40
40
50
40
30
ENDCHAR
STARTCHAR char321
ENCODING 321
SWIDTH 833 0
DWIDTH 5 0
BBX 4 5 0 0
BITMAP
80
A0
C0
80
F0
ENDCHAR
STARTCHAR char322
ENCODING 322
SWIDTH 833 0
DWIDTH 5 0
BBX 4 5 0 0
BITMAP
40
60
C0
40
30
ENDCHAR
STARTCHAR char323
ENCODING 323
SWIDTH 833 0
DWIDTH 5 0
BBX 4 5 0 0
BITMAP
A0
90
D0
B0
90
ENDCHAR
STARTCHAR char324
ENCODING 324
SWIDTH 833 0
DWIDTH 5 0
BBX 4 5 0 0
BITMAP
10
E0
90
90
90
ENDCHAR
STARTCHAR char325
ENCODING 325
SWIDTH 833 0
DWIDTH 5 0
BBX 4 7 0 -2
BITMAP
90
D0
B0
90
90
00
40
ENDCHAR
STARTCHAR char326
ENCODING 326
SWIDTH 833 0
DWIDTH 5 0
BBX 4 6 0 -2
BITMAP
E0
90
90
90
00
40
ENDCHAR
STARTCHAR char327
ENCODING 327
SWIDTH 833 0
DWIDTH 5 0
BBX 4 5 0 0
BITMAP
60
90
D0
B0
90
ENDCHAR
STARTCHAR char328
ENCODING 328
SWIDTH 833 0
DWIDTH 5 0
BBX 4 5 0 0
BITMAP
60
E0
90
90
90
ENDCHAR
STARTCHAR char329
ENCODING 329
SWIDTH 833 0
DWIDTH 5 0
BBX 4 5 0 0
BITMAP
80
00
E0
90
90
ENDCHAR
STARTCHAR char330
ENCODING 330
SWIDTH 833 0
DWIDTH 5 0
BBX 4 5 0 0
BITMAP
A0
D0
90
90
B0
ENDCHAR
STARTCHAR char331
ENCODING 331
SWIDTH 833 0
DWIDTH 5 0
BBX 4 6 0 -2
BITMAP
E0
90
90
90
10
20
ENDCHAR
STARTCHAR char332
ENCODING 332
SWIDTH 833 0
DWIDTH 5 0
BBX 4 5 0 0
BITMAP
60
60
90
90
60
ENDCHAR
STARTCHAR char333
ENCODING 333
SWIDTH 833 0
DWIDTH 5 0
BBX 3 5 1 0
BITMAP
40
40
A0
A0
40
ENDCHAR
STARTCHAR char334
ENCODING 334
SWIDTH 833 0
DWIDTH 5 0
BBX 4 5 0 0
BITMAP
60
60
90
90
60
ENDCHAR
STARTCHAR char335
ENCODING 335
SWIDTH 833 0
DWIDTH 5 0
BBX 3 5 1 0
BITMAP
40
40
A0
A0
40
ENDCHAR
STARTCHAR char336
ENCODING 336
SWIDTH 833 0
DWIDTH 5 0
BBX 4 5 0 0
BITMAP
90
60
90
90
60
ENDCHAR
STARTCHAR char337
ENCODING 337
SWIDTH 833 0
DWIDTH 5 0
BBX 3 5 1 0
BITMAP
A0
40
A0
A0
40
ENDCHAR
STARTCHAR char338
ENCODING 338
SWIDTH 833 0
DWIDTH 5 0
BBX 4 5 0 0
BITMAP
70
A0
B0
A0
70
ENDCHAR
STARTCHAR char339
ENCODING 339
SWIDTH 833 0
DWIDTH 5 0
BBX 5 4 0 0
BITMAP
50
B8
A0
50
ENDCHAR
STARTCHAR char340
ENCODING 340
SWIDTH 833 0
DWIDTH 5 0
BBX 4 5 0 0
BITMAP
20
E0
90
E0
90
ENDCHAR
STARTCHAR char341
ENCODING 341
SWIDTH 833 0
DWIDTH 5 0
BBX 4 5 0 0
BITMAP
40
A0
D0
80
80
ENDCHAR
STARTCHAR char342
ENCODING 342
SWIDTH 833 0
DWIDTH 5 0
BBX 4 7 0 -2
BITMAP
E0
90
E0
A0
90
00
40
ENDCHAR
STARTCHAR char343
ENCODING 343
SWIDTH 833 0
DWIDTH 5 0
BBX 4 6 0 -2
BITMAP
A0
D0
80
80
00
80
ENDCHAR
STARTCHAR char344
ENCODING 344
SWIDTH 833 0
DWIDTH 5 0
BBX 4 5 0 0
BITMAP
60
E0
90
E0
90
ENDCHAR
STARTCHAR char345
ENCODING 345
SWIDTH 833 0
DWIDTH 5 0
BBX 4 5 0 0
BITMAP
60
A0
D0
80
80
ENDCHAR
STARTCHAR char346
ENCODING 346
SWIDTH 833 0
DWIDTH 5 0
BBX 4 5 0 0
BITMAP
50
80
60
10
E0
ENDCHAR
STARTCHAR char347
ENCODING 347
SWIDTH 833 0
DWIDTH 5 0
BBX 4 5 0 0
BITMAP
60
70
C0
30
E0
ENDCHAR
STARTCHAR char348
ENCODING 348
SWIDTH 833 0
DWIDTH 5 0
BBX 4 5 0 0
BITMAP
50
80
60
10
E0
ENDCHAR
STARTCHAR char349
ENCODING 349
SWIDTH 833 0
DWIDTH 5 0
BBX 4 5 0 0
BITMAP
60
70
C0
30
E0
ENDCHAR
STARTCHAR char350
ENCODING 350
SWIDTH 833 0
DWIDTH 5 0
BBX 4 7 0 -2
BITMAP
70
80
60
10
E0
00
20
ENDCHAR
STARTCHAR char351
ENCODING 351
SWIDTH 833 0
DWIDTH 5 0
BBX 4 6 0 -2
BITMAP
70
C0
30
E0
00
20
ENDCHAR
STARTCHAR char352
ENCODING 352
SWIDTH 833 0
DWIDTH 5 0
BBX 4 5 0 0
BITMAP
50
80
60
10
E0
ENDCHAR
STARTCHAR char353
ENCODING 353
SWIDTH 833 0
DWIDTH 5 0
BBX 4 5 0 0
BITMAP
60
70
C0
30
E0
ENDCHAR
STARTCHAR char354
ENCODING 354
SWIDTH 833 0
DWIDTH 5 0
BBX 4 7 0 -2
BITMAP
70
20
20
20
20
00
20
ENDCHAR
STARTCHAR char355
ENCODING 355
SWIDTH 833 0
DWIDTH 5 0
BBX 4 7 0 -2
BITMAP
40
F0
40
40
30
00
20
ENDCHAR
STARTCHAR char356
ENCODING 356
SWIDTH 833 0
DWIDTH 5 0
BBX 3 5 1 0
BITMAP
E0
00
E0
40
40
ENDCHAR
STARTCHAR char357
ENCODING 357
SWIDTH 833 0
DWIDTH 5 0
BBX 4 5 0 0
BITMAP
50
F0
40
40
30
ENDCHAR
STARTCHAR char358
ENCODING 358
SWIDTH 833 0
DWIDTH 5 0
BBX 3 5 1 0
BITMAP
E0
40
E0
40
40
ENDCHAR
STARTCHAR char359
ENCODING 359
SWIDTH 833 0
DWIDTH 5 0
BBX 4 5 0 0
BITMAP
F0
40
F0
40
30
ENDCHAR
STARTCHAR char360
ENCODING 360
SWIDTH 833 0
DWIDTH 5 0
BBX 4 5 0 0
BITMAP
60
00
90
90
60
ENDCHAR
STARTCHAR char361
ENCODING 361
SWIDTH 833 0
DWIDTH 5 0
BBX 4 5 0 0
BITMAP
60
00
90
90
70
ENDCHAR
STARTCHAR char362
ENCODING 362
SWIDTH 833 0
DWIDTH 5 0
BBX 4 5 0 0
BITMAP
60
00
90
90
60
ENDCHAR
STARTCHAR char363
ENCODING 363
SWIDTH 833 0
DWIDTH 5 0
BBX 4 5 0 0
BITMAP
60
00
90
90
70
ENDCHAR
STARTCHAR char364
ENCODING 364
SWIDTH 833 0
DWIDTH 5 0
BBX 4 5 0 0
BITMAP
60
00
90
90
60
ENDCHAR
STARTCHAR char365
ENCODING 365
SWIDTH 833 0
DWIDTH 5 0
BBX 4 5 0 0
BITMAP
60
00
90
90
70
ENDCHAR
STARTCHAR char366
ENCODING 366
SWIDTH 833 0
DWIDTH 5 0
BBX 4 5 0 0
BITMAP
60
60
90
90
60
ENDCHAR
STARTCHAR char367
ENCODING 367
SWIDTH 833 0
DWIDTH 5 0
BBX 4 5 0 0
BITMAP
60
60
90
90
70
ENDCHAR
STARTCHAR char368
ENCODING 368
SWIDTH 833 0
DWIDTH 5 0
BBX 4 5 0 0
BITMAP
50
80
90
90
60
ENDCHAR
STARTCHAR char369
ENCODING 369
SWIDTH 833 0
DWIDTH 5 0
BBX 4 5 0 0
BITMAP
50
00
90
90
60
ENDCHAR
STARTCHAR char370
ENCODING 370
SWIDTH 833 0
DWIDTH 5 0
BBX 4 7 0 -2
BITMAP
90
90
90
90
60
40
20
ENDCHAR
STARTCHAR char371
ENCODING 371
SWIDTH 833 0
DWIDTH 5 0
BBX 4 6 0 -2
BITMAP
90
90
90
60
40
20
ENDCHAR
STARTCHAR char372
ENCODING 372
SWIDTH 833 0
DWIDTH 5 0
BBX 5 5 0 0
BITMAP
A8
88
A8
A8
50
ENDCHAR
STARTCHAR char373
ENCODING 373
SWIDTH 833 0
DWIDTH 5 0
BBX 5 4 0 0
BITMAP
A8
88
A8
50
ENDCHAR
STARTCHAR char374
ENCODING 374
SWIDTH 833 0
DWIDTH 5 0
BBX 3 5 1 0
BITMAP
40
A0
A0
40
40
ENDCHAR
STARTCHAR char375
ENCODING 375
SWIDTH 833 0
DWIDTH 5 0
BBX 4 7 0 -2
BITMAP
60
00
90
90
70
10
60
ENDCHAR
STARTCHAR char376
ENCODING 376
SWIDTH 833 0
DWIDTH 5 0
BBX 3 5 1 0
BITMAP
A0
00
A0
40
40
ENDCHAR
STARTCHAR char377
ENCODING 377
SWIDTH 833 0
DWIDTH 5 0
BBX 4 5 0 0
BITMAP
20
F0
20
40
F0
ENDCHAR
STARTCHAR char378
ENCODING 378
SWIDTH 833 0
DWIDTH 5 0
BBX 4 5 0 0
BITMAP
20
40
F0
60
F0
ENDCHAR
STARTCHAR char379
ENCODING 379
SWIDTH 833 0
DWIDTH 5 0
BBX 4 5 0 0
BITMAP
60
F0
20
40
F0
ENDCHAR
STARTCHAR char380
ENCODING 380
SWIDTH 833 0
DWIDTH 5 0
BBX 4 5 1 0
BITMAP
60
00
F0
60
F0
ENDCHAR
STARTCHAR char381
ENCODING 381
SWIDTH 833 0
DWIDTH 5 0
BBX 4 5 0 0
BITMAP
60
F0
20
40
F0
ENDCHAR
STARTCHAR char382
ENCODING 382
SWIDTH 833 0
DWIDTH 5 0
BBX 4 5 0 0
BITMAP
60
00
F0
60
F0
ENDCHAR
STARTCHAR char383
ENCODING 383
SWIDTH 833 0
DWIDTH 5 0
BBX 4 5 0 0
BITMAP
10
20
20
20
70
ENDCHAR
STARTCHAR char900
ENCODING 900
SWIDTH 833 0
DWIDTH 5 0
BBX 1 1 2 4
BITMAP
80
ENDCHAR
STARTCHAR char901
ENCODING 901
SWIDTH 833 0
DWIDTH 5 0
BBX 3 1 1 4
BITMAP
E0
ENDCHAR
STARTCHAR char902
ENCODING 902
SWIDTH 833 0
DWIDTH 5 0
BBX 4 5 0 0
BITMAP
80
60
90
F0
90
ENDCHAR
STARTCHAR char903
ENCODING 903
SWIDTH 833 0
DWIDTH 5 0
BBX 1 1 2 2
BITMAP
80
ENDCHAR
STARTCHAR char904
ENCODING 904
SWIDTH 833 0
DWIDTH 5 0
BBX 4 5 0 0
BITMAP
F0
40
60
40
70
ENDCHAR
STARTCHAR char905
ENCODING 905
SWIDTH 833 0
DWIDTH 5 0
BBX 4 5 0 0
BITMAP
D0
50
70
50
50
ENDCHAR
STARTCHAR char906
ENCODING 906
SWIDTH 833 0
DWIDTH 5 0
BBX 4 5 0 0
BITMAP
80
70
20
20
70
ENDCHAR
STARTCHAR char908
ENCODING 908
SWIDTH 833 0
DWIDTH 5 0
BBX 4 5 0 0
BITMAP
80
60
90
90
60
ENDCHAR
STARTCHAR char910
ENCODING 910
SWIDTH 833 0
DWIDTH 5 0
BBX 4 5 0 0
BITMAP
D0
50
20
20
20
ENDCHAR
STARTCHAR char911
ENCODING 911
SWIDTH 833 0
DWIDTH 5 0
BBX 4 5 0 0
BITMAP
80
60
90
60
F0
ENDCHAR
STARTCHAR char912
ENCODING 912
SWIDTH 833 0
DWIDTH 5 0
BBX 3 5 1 0
BITMAP
E0
00
C0
40
60
ENDCHAR
STARTCHAR char913
ENCODING 913
SWIDTH 833 0
DWIDTH 5 0
BBX 4 5 0 0
BITMAP
60
90
F0
90
90
ENDCHAR
STARTCHAR char914
ENCODING 914
SWIDTH 833 0
DWIDTH 5 0
BBX 4 5 0 0
BITMAP
E0
90
E0
90
E0
ENDCHAR
STARTCHAR char915
ENCODING 915
SWIDTH 833 0
DWIDTH 5 0
BBX 4 5 0 0
BITMAP
F0
80
80
80
80
ENDCHAR
STARTCHAR char916
ENCODING 916
SWIDTH 833 0
DWIDTH 5 0
BBX 4 5 0 0
BITMAP
60
60
90
90
F0
ENDCHAR
STARTCHAR char917
ENCODING 917
SWIDTH 833 0
DWIDTH 5 0
BBX 4 5 0 0
BITMAP
F0
80
E0
80
F0
ENDCHAR
STARTCHAR char918
ENCODING 918
SWIDTH 833 0
DWIDTH 5 0
BBX 4 5 0 0
BITMAP
F0
10
60
80
F0
ENDCHAR
STARTCHAR char919
ENCODING 919
SWIDTH 833 0
DWIDTH 5 0
BBX 4 5 0 0
BITMAP
90
90
F0
90
90
ENDCHAR
STARTCHAR char920
ENCODING 920
SWIDTH 833 0
DWIDTH 5 0
BBX 4 5 0 0
BITMAP
60
90
F0
90
60
ENDCHAR
STARTCHAR char921
ENCODING 921
SWIDTH 833 0
DWIDTH 5 0
BBX 4 5 0 0
BITMAP
70
20
20
20
70
ENDCHAR
STARTCHAR char922
ENCODING 922
SWIDTH 833 0
DWIDTH 5 0
BBX 4 5 0 0
BITMAP
90
A0
C0
A0
90
ENDCHAR
STARTCHAR char923
ENCODING 923
SWIDTH 833 0
DWIDTH 5 0
BBX 4 5 0 0
BITMAP
60
60
90
90
90
ENDCHAR
STARTCHAR char924
ENCODING 924
SWIDTH 833 0
DWIDTH 5 0
BBX 4 5 0 0
BITMAP
90
F0
90
90
90
ENDCHAR
STARTCHAR char925
ENCODING 925
SWIDTH 833 0
DWIDTH 5 0
BBX 4 5 0 0
BITMAP
90
D0
B0
90
90
ENDCHAR
STARTCHAR char926
ENCODING 926
SWIDTH 833 0
DWIDTH 5 0
BBX 4 5 0 0
BITMAP
F0
00
60
00
F0
ENDCHAR
STARTCHAR char927
ENCODING 927
SWIDTH 833 0
DWIDTH 5 0
BBX 4 5 0 0
BITMAP
60
90
90
90
60
ENDCHAR
STARTCHAR char928
ENCODING 928
SWIDTH 833 0
DWIDTH 5 0
BBX 4 5 0 0
BITMAP
F0
90
90
90
90
ENDCHAR
STARTCHAR char929
ENCODING 929
SWIDTH 833 0
DWIDTH 5 0
BBX 4 5 0 0
BITMAP
E0
90
E0
80
80
ENDCHAR
STARTCHAR char931
ENCODING 931
SWIDTH 833 0
DWIDTH 5 0
BBX 4 5 0 0
BITMAP
F0
40
20
40
F0
ENDCHAR
STARTCHAR char932
ENCODING 932
SWIDTH 833 0
DWIDTH 5 0
BBX 3 5 1 0
BITMAP
E0
40
40
40
40
ENDCHAR
STARTCHAR char933
ENCODING 933
SWIDTH 833 0
DWIDTH 5 0
BBX 3 5 1 0
BITMAP
A0
A0
40
40
40
ENDCHAR
STARTCHAR char934
ENCODING 934
SWIDTH 833 0
DWIDTH 5 0
BBX 5 5 0 0
BITMAP
20
70
A8
70
20
ENDCHAR
STARTCHAR char935
ENCODING 935
SWIDTH 833 0
DWIDTH 5 0
BBX 4 5 0 0
BITMAP
90
90
60
90
90
ENDCHAR
STARTCHAR char936
ENCODING 936
SWIDTH 833 0
DWIDTH 5 0
BBX 5 5 0 0
BITMAP
A8
A8
70
20
20
ENDCHAR
STARTCHAR char937
ENCODING 937
SWIDTH 833 0
DWIDTH 5 0
BBX 4 5 0 0
BITMAP
60
90
90
60
F0
ENDCHAR
STARTCHAR char938
ENCODING 938
SWIDTH 833 0
DWIDTH 5 0
BBX 3 5 1 0
BITMAP
A0
E0
40
40
E0
ENDCHAR
STARTCHAR char939
ENCODING 939
SWIDTH 833 0
DWIDTH 5 0
BBX 3 5 1 0
BITMAP
A0
00
A0
40
40
ENDCHAR
STARTCHAR char940
ENCODING 940
SWIDTH 833 0
DWIDTH 5 0
BBX 4 5 0 0
BITMAP
40
50
A0
A0
50
ENDCHAR
STARTCHAR char941
ENCODING 941
SWIDTH 833 0
DWIDTH 5 0
BBX 4 5 0 0
BITMAP
50
80
40
80
60
ENDCHAR
STARTCHAR char942
ENCODING 942
SWIDTH 833 0
DWIDTH 5 0
BBX 4 6 0 -1
BITMAP
90
A0
D0
90
90
10
ENDCHAR
STARTCHAR char943
ENCODING 943
SWIDTH 833 0
DWIDTH 5 0
BBX 4 5 0 0
BITMAP
20
00
60
20
30
ENDCHAR
STARTCHAR char944
ENCODING 944
SWIDTH 833 0
DWIDTH 5 0
BBX 4 5 0 0
BITMAP
F0
00
90
90
60
ENDCHAR
STARTCHAR char945
ENCODING 945
SWIDTH 833 0
DWIDTH 5 0
BBX 4 4 0 0
BITMAP
50
A0
A0
50
ENDCHAR
STARTCHAR char946
ENCODING 946
SWIDTH 833 0
DWIDTH 5 0
BBX 4 6 0 -1
BITMAP
60
90
A0
90
A0
80
ENDCHAR
STARTCHAR char947
ENCODING 947
SWIDTH 833 0
DWIDTH 5 0
BBX 3 6 1 -2
BITMAP
A0
A0
A0
40
40
80
ENDCHAR
STARTCHAR char948
ENCODING 948
SWIDTH 833 0
DWIDTH 5 0
BBX 3 5 1 0
BITMAP
E0
80
40
A0
40
ENDCHAR
STARTCHAR char949
ENCODING 949
SWIDTH 833 0
DWIDTH 5 0
BBX 3 5 1 0
BITMAP
60
80
40
80
60
ENDCHAR
STARTCHAR char950
ENCODING 950
SWIDTH 833 0
DWIDTH 5 0
BBX 4 6 0 -1
BITMAP
F0
20
40
80
60
20
ENDCHAR
STARTCHAR char951
ENCODING 951
SWIDTH 833 0
DWIDTH 5 0
BBX 4 5 0 -1
BITMAP
A0
D0
90
90
10
ENDCHAR
STARTCHAR char952
ENCODING 952
SWIDTH 833 0
DWIDTH 5 0
BBX 3 5 1 0
BITMAP
40
A0
E0
A0
40
ENDCHAR
STARTCHAR char953
ENCODING 953
SWIDTH 833 0
DWIDTH 5 0
BBX 4 4 0 0
BITMAP
60
20
20
30
ENDCHAR
STARTCHAR char954
ENCODING 954
SWIDTH 833 0
DWIDTH 5 0
BBX 4 4 0 0
BITMAP
B0
C0
A0
90
ENDCHAR
STARTCHAR char955
ENCODING 955
SWIDTH 833 0
DWIDTH 5 0
BBX 4 5 0 0
BITMAP
40
20
20
50
50
ENDCHAR
STARTCHAR char956
ENCODING 956
SWIDTH 833 0
DWIDTH 5 0
BBX 4 6 0 -2
BITMAP
A0
A0
A0
D0
80
80
ENDCHAR
STARTCHAR char957
ENCODING 957
SWIDTH 833 0
DWIDTH 5 0
BBX 4 4 0 0
BITMAP
90
50
50
20
ENDCHAR
STARTCHAR char958
ENCODING 958
SWIDTH 833 0
DWIDTH 5 0
BBX 4 6 0 -1
BITMAP
F0
40
60
80
70
10
ENDCHAR
STARTCHAR char959
ENCODING 959
SWIDTH 833 0
DWIDTH 5 0
BBX 4 4 0 0
BITMAP
60
90
90
60
ENDCHAR
STARTCHAR char960
ENCODING 960
SWIDTH 833 0
DWIDTH 5 0
BBX 4 4 0 0
BITMAP
F0
A0
A0
90
ENDCHAR
STARTCHAR char961
ENCODING 961
SWIDTH 833 0
DWIDTH 5 0
BBX 4 6 0 -2
BITMAP
60
90
90
E0
80
80
ENDCHAR
STARTCHAR char962
ENCODING 962
SWIDTH 833 0
DWIDTH 5 0
BBX 4 5 0 -1
BITMAP
70
80
80
60
10
ENDCHAR
STARTCHAR char963
ENCODING 963
SWIDTH 833 0
DWIDTH 5 0
BBX 4 5 0 0
BITMAP
70
90
90
90
60
ENDCHAR
STARTCHAR char964
ENCODING 964
SWIDTH 833 0
DWIDTH 5 0
BBX 3 5 1 -1
BITMAP
E0
40
40
40
20
ENDCHAR
STARTCHAR char965
ENCODING 965
SWIDTH 833 0
DWIDTH 5 0
BBX 4 4 0 0
BITMAP
90
90
90
60
ENDCHAR
STARTCHAR char966
ENCODING 966
SWIDTH 833 0
DWIDTH 5 0
BBX 5 6 0 -2
BITMAP
B0
A8
A8
70
20
20
ENDCHAR
STARTCHAR char967
ENCODING 967
SWIDTH 833 0
DWIDTH 5 0
BBX 4 5 0 -1
BITMAP
90
90
60
90
90
ENDCHAR
STARTCHAR char968
ENCODING 968
SWIDTH 833 0
DWIDTH 5 0
BBX 5 6 0 -2
BITMAP
A8
A8
A8
70
20
20
ENDCHAR
STARTCHAR char969
ENCODING 969
SWIDTH 833 0
DWIDTH 5 0
BBX 5 4 0 0
BITMAP
A8
A8
A8
50
ENDCHAR
STARTCHAR char970
ENCODING 970
SWIDTH 833 0
DWIDTH 5 0
BBX 4 5 0 0
BITMAP
50
00
60
20
30
ENDCHAR
STARTCHAR char971
ENCODING 971
SWIDTH 833 0
DWIDTH 5 0
BBX 4 5 0 0
BITMAP
50
00
90
90
60
ENDCHAR
STARTCHAR char972
ENCODING 972
SWIDTH 833 0
DWIDTH 5 0
BBX 4 5 0 0
BITMAP
10
60
90
90
60
ENDCHAR
STARTCHAR char973
ENCODING 973
SWIDTH 833 0
DWIDTH 5 0
BBX 4 5 0 0
BITMAP
20
90
90
90
60
ENDCHAR
STARTCHAR char974
ENCODING 974
SWIDTH 833 0
DWIDTH 5 0
BBX 5 5 0 0
BITMAP
10
A8
A8
A8
50
ENDCHAR
STARTCHAR char1024
ENCODING 1024
SWIDTH 833 0
DWIDTH 5 0
BBX 4 5 0 0
BITMAP
D0
80
E0
80
F0
ENDCHAR
STARTCHAR char1025
ENCODING 1025
SWIDTH 833 0
DWIDTH 5 0
BBX 4 5 0 0
BITMAP
50
80
E0
80
F0
ENDCHAR
STARTCHAR char1026
ENCODING 1026
SWIDTH 833 0
DWIDTH 5 0
BBX 4 5 0 0
BITMAP
E0
40
70
50
50
ENDCHAR
STARTCHAR char1027
ENCODING 1027
SWIDTH 833 0
DWIDTH 5 0
BBX 4 5 0 0
BITMAP
20
F0
80
80
80
ENDCHAR
STARTCHAR char1028
ENCODING 1028
SWIDTH 833 0
DWIDTH 5 0
BBX 4 5 0 0
BITMAP
60
90
C0
90
60
ENDCHAR
STARTCHAR char1029
ENCODING 1029
SWIDTH 833 0
DWIDTH 5 0
BBX 4 5 0 0
BITMAP
70
80
60
10
E0
ENDCHAR
STARTCHAR char1030
ENCODING 1030
SWIDTH 833 0
DWIDTH 5 0
BBX 3 5 1 0
BITMAP
E0
40
40
40
E0
ENDCHAR
STARTCHAR char1031
ENCODING 1031
SWIDTH 833 0
DWIDTH 5 0
BBX 3 5 1 0
BITMAP
A0
40
40
40
E0
ENDCHAR
STARTCHAR char1032
ENCODING 1032
SWIDTH 833 0
DWIDTH 5 0
BBX 4 5 0 0
BITMAP
F0
10
10
90
60
ENDCHAR
STARTCHAR char1033
ENCODING 1033
SWIDTH 833 0
DWIDTH 5 0
BBX 4 5 0 0
BITMAP
60
60
70
B0
A0
ENDCHAR
STARTCHAR char1034
ENCODING 1034
SWIDTH 833 0
DWIDTH 5 0
BBX 4 5 0 0
BITMAP
A0
A0
F0
B0
A0
ENDCHAR
STARTCHAR char1035
ENCODING 1035
SWIDTH 833 0
DWIDTH 5 0
BBX 4 4 0 0
BITMAP
E0
40
70
50
ENDCHAR
STARTCHAR char1036
ENCODING 1036
SWIDTH 833 0
DWIDTH 5 0
BBX 4 5 0 0
BITMAP
D0
A0
C0
A0
90
ENDCHAR
STARTCHAR char1037
ENCODING 1037
SWIDTH 833 0
DWIDTH 5 0
BBX 4 5 0 0
BITMAP
50
90
B0
D0
90
ENDCHAR
STARTCHAR char1038
ENCODING 1038
SWIDTH 833 0
DWIDTH 5 0
BBX 3 5 1 0
BITMAP
40
A0
A0
40
80
ENDCHAR
STARTCHAR char1039
ENCODING 1039
SWIDTH 833 0
DWIDTH 5 0
BBX 3 6 1 -1
BITMAP
A0
A0
A0
A0
E0
40
ENDCHAR
STARTCHAR char1040
ENCODING 1040
SWIDTH 833 0
DWIDTH 5 0
BBX 4 5 0 0
BITMAP
60
90
F0
90
90
ENDCHAR
STARTCHAR char1041
ENCODING 1041
SWIDTH 833 0
DWIDTH 5 0
BBX 4 5 0 0
BITMAP
F0
80
E0
90
E0
ENDCHAR
STARTCHAR char1042
ENCODING 1042
SWIDTH 833 0
DWIDTH 5 0
BBX 4 5 0 0
BITMAP
E0
90
E0
90
E0
ENDCHAR
STARTCHAR char1043
ENCODING 1043
SWIDTH 833 0
DWIDTH 5 0
BBX 4 5 0 0
BITMAP
F0
80
80
80
80
ENDCHAR
STARTCHAR char1044
ENCODING 1044
SWIDTH 833 0
DWIDTH 5 0
BBX 4 6 0 -1
BITMAP
70
50
50
50
F0
90
ENDCHAR
STARTCHAR char1045
ENCODING 1045
SWIDTH 833 0
DWIDTH 5 0
BBX 4 5 0 0
BITMAP
F0
80
F0
80
F0
ENDCHAR
STARTCHAR char1046
ENCODING 1046
SWIDTH 833 0
DWIDTH 5 0
BBX 5 5 0 0
BITMAP
A8
A8
70
A8
A8
ENDCHAR
STARTCHAR char1047
ENCODING 1047
SWIDTH 833 0
DWIDTH 5 0
BBX 4 5 0 0
BITMAP
60
90
20
90
60
ENDCHAR
STARTCHAR char1048
ENCODING 1048
SWIDTH 833 0
DWIDTH 5 0
BBX 4 5 0 0
BITMAP
90
B0
D0
90
90
ENDCHAR
STARTCHAR char1049
ENCODING 1049
SWIDTH 833 0
DWIDTH 5 0
BBX 4 5 0 0
BITMAP
60
90
B0
D0
90
ENDCHAR
STARTCHAR char1050
ENCODING 1050
SWIDTH 833 0
DWIDTH 5 0
BBX 4 5 0 0
BITMAP
90
A0
C0
A0
90
ENDCHAR
STARTCHAR char1051
ENCODING 1051
SWIDTH 833 0
DWIDTH 5 0
BBX 4 5 0 0
BITMAP
70
50
50
90
90
ENDCHAR
STARTCHAR char1052
ENCODING 1052
SWIDTH 833 0
DWIDTH 5 0
BBX 4 5 0 0
BITMAP
90
F0
90
90
90
ENDCHAR
STARTCHAR char1053
ENCODING 1053
SWIDTH 833 0
DWIDTH 5 0
BBX 4 5 0 0
BITMAP
90
90
F0
90
90
ENDCHAR
STARTCHAR char1054
ENCODING 1054
SWIDTH 833 0
DWIDTH 5 0
BBX 4 5 0 0
BITMAP
60
90
90
90
60
ENDCHAR
STARTCHAR char1055
ENCODING 1055
SWIDTH 833 0
DWIDTH 5 0
BBX 4 5 0 0
BITMAP
F0
90
90
90
90
ENDCHAR
STARTCHAR char1056
ENCODING 1056
SWIDTH 833 0
DWIDTH 5 0
BBX 4 5 0 0
BITMAP
E0
90
E0
80
80
ENDCHAR
STARTCHAR char1057
ENCODING 1057
SWIDTH 833 0
DWIDTH 5 0
BBX 4 5 0 0
BITMAP
60
90
80
90
60
ENDCHAR
STARTCHAR char1058
ENCODING 1058
SWIDTH 833 0
DWIDTH 5 0
BBX 3 5 1 0
BITMAP
E0
40
40
40
40
ENDCHAR
STARTCHAR char1059
ENCODING 1059
SWIDTH 833 0
DWIDTH 5 0
BBX 3 5 1 0
BITMAP
A0
A0
40
40
80
ENDCHAR
STARTCHAR char1060
ENCODING 1060
SWIDTH 833 0
DWIDTH 5 0
BBX 5 5 0 0
BITMAP
20
F8
A8
F8
20
ENDCHAR
STARTCHAR char1061
ENCODING 1061
SWIDTH 833 0
DWIDTH 5 0
BBX 4 5 0 0
BITMAP
90
90
60
90
90
ENDCHAR
STARTCHAR char1062
ENCODING 1062
SWIDTH 833 0
DWIDTH 5 0
BBX 4 6 0 -1
BITMAP
A0
A0
A0
A0
F0
10
ENDCHAR
STARTCHAR char1063
ENCODING 1063
SWIDTH 833 0
DWIDTH 5 0
BBX 4 5 0 0
BITMAP
90
90
70
10
10
ENDCHAR
STARTCHAR char1064
ENCODING 1064
SWIDTH 833 0
DWIDTH 5 0
BBX 5 5 0 0
BITMAP
A8
A8
A8
A8
F8
ENDCHAR
STARTCHAR char1065
ENCODING 1065
SWIDTH 833 0
DWIDTH 5 0
BBX 5 6 0 -1
BITMAP
A8
A8
A8
A8
F8
08
ENDCHAR
STARTCHAR char1066
ENCODING 1066
SWIDTH 833 0
DWIDTH 5 0
BBX 4 5 0 0
BITMAP
C0
40
60
50
60
ENDCHAR
STARTCHAR char1067
ENCODING 1067
SWIDTH 833 0
DWIDTH 5 0
BBX 4 5 0 0
BITMAP
90
90
D0
B0
D0
ENDCHAR
STARTCHAR char1068
ENCODING 1068
SWIDTH 833 0
DWIDTH 5 0
BBX 3 5 1 0
BITMAP
80
80
C0
A0
C0
ENDCHAR
STARTCHAR char1069
ENCODING 1069
SWIDTH 833 0
DWIDTH 5 0
BBX 4 5 0 0
BITMAP
60
90
30
90
60
ENDCHAR
STARTCHAR char1070
ENCODING 1070
SWIDTH 833 0
DWIDTH 5 0
BBX 4 5 0 0
BITMAP
B0
B0
F0
B0
B0
ENDCHAR
STARTCHAR char1071
ENCODING 1071
SWIDTH 833 0
DWIDTH 5 0
BBX 4 5 0 0
BITMAP
70
90
70
50
90
ENDCHAR
STARTCHAR char1072
ENCODING 1072
SWIDTH 833 0
DWIDTH 5 0
BBX 4 4 0 0
BITMAP
60
90
90
70
ENDCHAR
STARTCHAR char1073
ENCODING 1073
SWIDTH 833 0
DWIDTH 5 0
BBX 4 5 0 0
BITMAP
70
80
E0
90
60
ENDCHAR
STARTCHAR char1074
ENCODING 1074
SWIDTH 833 0
DWIDTH 5 0
BBX 4 4 0 0
BITMAP
E0
F0
90
E0
ENDCHAR
STARTCHAR char1075
ENCODING 1075
SWIDTH 833 0
DWIDTH 5 0
BBX 3 4 1 0
BITMAP
E0
80
80
80
ENDCHAR
STARTCHAR char1076
ENCODING 1076
SWIDTH 833 0
DWIDTH 5 0
BBX 4 6 0 -2
BITMAP
70
50
50
F0
90
90
ENDCHAR
STARTCHAR char1077
ENCODING 1077
SWIDTH 833 0
DWIDTH 5 0
BBX 4 4 0 0
BITMAP
60
F0
80
60
ENDCHAR
STARTCHAR char1078
ENCODING 1078
SWIDTH 833 0
DWIDTH 5 0
BBX 5 4 0 0
BITMAP
A8
70
70
A8
ENDCHAR
STARTCHAR char1079
ENCODING 1079
SWIDTH 833 0
DWIDTH 5 0
BBX 4 4 0 0
BITMAP
F0
20
90
60
ENDCHAR
STARTCHAR char1080
ENCODING 1080
SWIDTH 833 0
DWIDTH 5 0
BBX 4 4 0 0
BITMAP
90
B0
D0
90
ENDCHAR
STARTCHAR char1081
ENCODING 1081
SWIDTH 833 0
DWIDTH 5 0
BBX 4 5 0 0
BITMAP
60
90
B0
D0
90
ENDCHAR
STARTCHAR char1082
ENCODING 1082
SWIDTH 833 0
DWIDTH 5 0
BBX 4 4 0 0
BITMAP
B0
C0
A0
90
ENDCHAR
STARTCHAR char1083
ENCODING 1083
SWIDTH 833 0
DWIDTH 5 0
BBX 4 4 0 0
BITMAP
70
50
90
90
ENDCHAR
STARTCHAR char1084
ENCODING 1084
SWIDTH 833 0
DWIDTH 5 0
BBX 4 4 0 0
BITMAP
90
F0
90
90
ENDCHAR
STARTCHAR char1085
ENCODING 1085
SWIDTH 833 0
DWIDTH 5 0
BBX 4 4 0 0
BITMAP
90
90
F0
90
ENDCHAR
STARTCHAR char1086
ENCODING 1086
SWIDTH 833 0
DWIDTH 5 0
BBX 4 4 0 0
BITMAP
60
90
90
60
ENDCHAR
STARTCHAR char1087
ENCODING 1087
SWIDTH 833 0
DWIDTH 5 0
BBX 4 4 0 0
BITMAP
F0
90
90
90
ENDCHAR
STARTCHAR char1088
ENCODING 1088
SWIDTH 833 0
DWIDTH 5 0
BBX 4 5 0 -1
BITMAP
E0
90
90
E0
80
ENDCHAR
STARTCHAR char1089
ENCODING 1089
SWIDTH 833 0
DWIDTH 5 0
BBX 4 4 0 0
BITMAP
70
80
80
70
ENDCHAR
STARTCHAR char1090
ENCODING 1090
SWIDTH 833 0
DWIDTH 5 0
BBX 3 4 1 0
BITMAP
E0
40
40
40
ENDCHAR
STARTCHAR char1091
ENCODING 1091
SWIDTH 833 0
DWIDTH 5 0
BBX 4 5 0 -1
BITMAP
50
50
20
20
40
ENDCHAR
STARTCHAR char1092
ENCODING 1092
SWIDTH 833 0
DWIDTH 5 0
BBX 5 6 0 -1
BITMAP
20
70
A8
A8
70
20
ENDCHAR
STARTCHAR char1093
ENCODING 1093
SWIDTH 833 0
DWIDTH 5 0
BBX 4 4 0 0
BITMAP
90
60
60
90
ENDCHAR
STARTCHAR char1094
ENCODING 1094
SWIDTH 833 0
DWIDTH 5 0
BBX 4 5 0 -1
BITMAP
A0
A0
A0
F0
10
ENDCHAR
STARTCHAR char1095
ENCODING 1095
SWIDTH 833 0
DWIDTH 5 0
BBX 4 4 0 0
BITMAP
90
90
70
10
ENDCHAR
STARTCHAR char1096
ENCODING 1096
SWIDTH 833 0
DWIDTH 5 0
BBX 5 4 0 0
BITMAP
A8
A8
A8
F8
ENDCHAR
STARTCHAR char1097
ENCODING 1097
SWIDTH 833 0
DWIDTH 5 0
BBX 5 5 0 -1
BITMAP
A8
A8
A8
F8
08
ENDCHAR
STARTCHAR char1098
ENCODING 1098
SWIDTH 833 0
DWIDTH 5 0
BBX 4 4 0 0
BITMAP
C0
60
50
60
ENDCHAR
STARTCHAR char1099
ENCODING 1099
SWIDTH 833 0
DWIDTH 5 0
BBX 4 4 0 0
BITMAP
90
90
D0
D0
ENDCHAR
STARTCHAR char1100
ENCODING 1100
SWIDTH 833 0
DWIDTH 5 0
BBX 3 4 1 0
BITMAP
80
C0
A0
C0
ENDCHAR
STARTCHAR char1101
ENCODING 1101
SWIDTH 833 0
DWIDTH 5 0
BBX 3 4 1 0
BITMAP
C0
60
20
C0
ENDCHAR
STARTCHAR char1102
ENCODING 1102
SWIDTH 833 0
DWIDTH 5 0
BBX 4 4 0 0
BITMAP
B0
B0
F0
B0
ENDCHAR
STARTCHAR char1103
ENCODING 1103
SWIDTH 833 0
DWIDTH 5 0
BBX 3 4 1 0
BITMAP
60
A0
60
A0
ENDCHAR
STARTCHAR char1104
ENCODING 1104
SWIDTH 833 0
DWIDTH 5 0
BBX 4 5 0 0
BITMAP
40
60
F0
80
60
ENDCHAR
STARTCHAR char1105
ENCODING 1105
SWIDTH 833 0
DWIDTH 5 0
BBX 4 5 0 0
BITMAP
90
60
F0
80
60
ENDCHAR
STARTCHAR char1106
ENCODING 1106
SWIDTH 833 0
DWIDTH 5 0
BBX 4 6 0 -1
BITMAP
E0
80
E0
90
90
20
ENDCHAR
STARTCHAR char1107
ENCODING 1107
SWIDTH 833 0
DWIDTH 5 0
BBX 3 5 1 0
BITMAP
40
E0
80
80
80
ENDCHAR
STARTCHAR char1108
ENCODING 1108
SWIDTH 833 0
DWIDTH 5 0
BBX 4 4 1 0
BITMAP
60
C0
80
60
ENDCHAR
STARTCHAR char1109
ENCODING 1109
SWIDTH 833 0
DWIDTH 5 0
BBX 4 4 0 0
BITMAP
70
C0
30
E0
ENDCHAR
STARTCHAR char1110
ENCODING 1110
SWIDTH 833 0
DWIDTH 5 0
BBX 3 5 1 0
BITMAP
40
00
C0
40
E0
ENDCHAR
STARTCHAR char1111
ENCODING 1111
SWIDTH 833 0
DWIDTH 5 0
BBX 3 5 1 0
BITMAP
A0
00
C0
40
E0
ENDCHAR
STARTCHAR char1112
ENCODING 1112
SWIDTH 833 0
DWIDTH 5 0
BBX 4 7 0 -2
BITMAP
10
00
30
10
10
90
60
ENDCHAR
STARTCHAR char1113
ENCODING 1113
SWIDTH 833 0
DWIDTH 5 0
BBX 4 5 0 0
BITMAP
60
60
60
B0
B0
ENDCHAR
STARTCHAR char1114
ENCODING 1114
SWIDTH 833 0
DWIDTH 5 0
BBX 4 5 0 0
BITMAP
A0
A0
E0
B0
B0
ENDCHAR
STARTCHAR char1115
ENCODING 1115
SWIDTH 833 0
DWIDTH 5 0
BBX 4 5 0 0
BITMAP
E0
80
E0
90
90
ENDCHAR
STARTCHAR char1116
ENCODING 1116
SWIDTH 833 0
DWIDTH 5 0
BBX 4 5 0 0
BITMAP
40
B0
C0
A0
90
ENDCHAR
STARTCHAR char1117
ENCODING 1117
SWIDTH 833 0
DWIDTH 5 0
BBX 4 5 0 0
BITMAP
40
90
B0
D0
90
ENDCHAR
STARTCHAR char1118
ENCODING 1118
SWIDTH 833 0
DWIDTH 5 0
BBX 3 6 1 -1
BITMAP
40
A0
A0
40
40
80
ENDCHAR
STARTCHAR char1119
ENCODING 1119
SWIDTH 833 0
DWIDTH 5 0
BBX 3 5 1 -1
BITMAP
A0
A0
A0
E0
40
ENDCHAR
STARTCHAR char8216
ENCODING 8216
SWIDTH 833 0
DWIDTH 5 0
BBX 2 2 1 3
BITMAP
80
C0
ENDCHAR
STARTCHAR char8217
ENCODING 8217
SWIDTH 833 0
DWIDTH 5 0
BBX 2 2 1 3
BITMAP
C0
40
ENDCHAR
STARTCHAR char8218
ENCODING 8218
SWIDTH 833 0
DWIDTH 5 0
BBX 3 2 0 0
BITMAP
60
20
ENDCHAR
STARTCHAR char8219
ENCODING 8219
SWIDTH 833 0
DWIDTH 5 0
BBX 2 2 1 3
BITMAP
C0
80
ENDCHAR
STARTCHAR char8220
ENCODING 8220
SWIDTH 833 0
DWIDTH 5 0
BBX 4 2 0 3
BITMAP
A0
B0
ENDCHAR
STARTCHAR char8221
ENCODING 8221
SWIDTH 833 0
DWIDTH 5 0
BBX 4 2 0 3
BITMAP
D0
50
ENDCHAR
STARTCHAR char8222
ENCODING 8222
SWIDTH 833 0
DWIDTH 5 0
BBX 4 2 0 0
BITMAP
D0
50
ENDCHAR
STARTCHAR char8223
ENCODING 8223
SWIDTH 833 0
DWIDTH 5 0
BBX 4 2 0 3
BITMAP
B0
A0
ENDCHAR
STARTCHAR char8226
ENCODING 8226
SWIDTH 833 0
DWIDTH 5 0
BBX 2 2 1 1
BITMAP
C0
C0
ENDCHAR
STARTCHAR char8227
ENCODING 8227
SWIDTH 833 0
DWIDTH 5 0
BBX 2 3 1 1
BITMAP
80
C0
80
ENDCHAR
STARTCHAR char8228
ENCODING 8228
SWIDTH 833 0
DWIDTH 5 0
BBX 3 1 0 0
BITMAP
20
ENDCHAR
STARTCHAR char8229
ENCODING 8229
SWIDTH 833 0
DWIDTH 5 0
BBX 4 1 0 0
BITMAP
50
ENDCHAR
STARTCHAR char8230
ENCODING 8230
SWIDTH 833 0
DWIDTH 5 0
BBX 5 1 0 0
BITMAP
A8
ENDCHAR
STARTCHAR char8231
ENCODING 8231
SWIDTH 833 0
DWIDTH 5 0
BBX 2 1 1 2
BITMAP
C0
ENDCHAR
STARTCHAR char8240
ENCODING 8240
SWIDTH 833 0
DWIDTH 5 0
BBX 4 5 0 0
BITMAP
90
10
60
80
B0
ENDCHAR
STARTCHAR char8241
ENCODING 8241
SWIDTH 833 0
DWIDTH 5 0
BBX 5 5 0 0
BITMAP
90
10
60
80
B8
ENDCHAR
STARTCHAR char8242
ENCODING 8242
SWIDTH 833 0
DWIDTH 5 0
BBX 2 2 1 3
BITMAP
40
80
ENDCHAR
STARTCHAR char8243
ENCODING 8243
SWIDTH 833 0
DWIDTH 5 0
BBX 4 2 0 3
BITMAP
50
A0
ENDCHAR
STARTCHAR char8244
ENCODING 8244
SWIDTH 833 0
DWIDTH 5 0
BBX 4 2 0 3
BITMAP
70
E0
ENDCHAR
STARTCHAR char8245
ENCODING 8245
SWIDTH 833 0
DWIDTH 5 0
BBX 2 2 1 3
BITMAP
80
40
ENDCHAR
STARTCHAR char8246
ENCODING 8246
SWIDTH 833 0
DWIDTH 5 0
BBX 4 2 0 3
BITMAP
A0
50
ENDCHAR
STARTCHAR char8247
ENCODING 8247
SWIDTH 833 0
DWIDTH 5 0
BBX 4 2 0 3
BITMAP
E0
70
ENDCHAR
STARTCHAR char9472
ENCODING 9472
SWIDTH 833 0
DWIDTH 5 0
BBX 5 1 0 1
BITMAP
F8
ENDCHAR
STARTCHAR char9473
ENCODING 9473
SWIDTH 833 0
DWIDTH 5 0
BBX 5 3 0 0
BITMAP
F8
F8
F8
ENDCHAR
STARTCHAR char9474
ENCODING 9474
SWIDTH 833 0
DWIDTH 5 0
BBX 3 7 0 -2
BITMAP
20
20
20
20
20
20
20
ENDCHAR
STARTCHAR char9475
ENCODING 9475
SWIDTH 833 0
DWIDTH 5 0
BBX 4 7 0 -2
BITMAP
70
70
70
70
70
70
70
ENDCHAR
STARTCHAR char9476
ENCODING 9476
SWIDTH 833 0
DWIDTH 5 0
BBX 5 1 0 1
BITMAP
A8
ENDCHAR
STARTCHAR char9477
ENCODING 9477
SWIDTH 833 0
DWIDTH 5 0
BBX 5 3 0 0
BITMAP
A8
A8
A8
ENDCHAR
STARTCHAR char9478
ENCODING 9478
SWIDTH 833 0
DWIDTH 5 0
BBX 3 7 0 -2
BITMAP
20
20
00
20
00
20
20
ENDCHAR
STARTCHAR char9479
ENCODING 9479
SWIDTH 833 0
DWIDTH 5 0
BBX 3 7 1 -2
BITMAP
E0
E0
00
E0
00
E0
E0
ENDCHAR
STARTCHAR char9480
ENCODING 9480
SWIDTH 833 0
DWIDTH 5 0
BBX 5 1 0 1
BITMAP
A8
ENDCHAR
STARTCHAR char9481
ENCODING 9481
SWIDTH 833 0
DWIDTH 5 0
BBX 5 3 0 0
BITMAP
A8
A8
A8
ENDCHAR
STARTCHAR char9482
ENCODING 9482
SWIDTH 833 0
DWIDTH 5 0
BBX 3 7 0 -2
BITMAP
20
00
20
00
20
00
20
ENDCHAR
STARTCHAR char9483
ENCODING 9483
SWIDTH 833 0
DWIDTH 5 0
BBX 3 7 1 -2
BITMAP
E0
00
E0
00
E0
00
E0
ENDCHAR
STARTCHAR char9484
ENCODING 9484
SWIDTH 833 0
DWIDTH 5 0
BBX 5 4 0 -2
BITMAP
38
20
20
20
ENDCHAR
STARTCHAR char9485
ENCODING 9485
SWIDTH 833 0
DWIDTH 5 0
BBX 5 5 0 -2
BITMAP
38
38
38
20
20
ENDCHAR
STARTCHAR char9486
ENCODING 9486
SWIDTH 833 0
DWIDTH 5 0
BBX 5 4 0 -2
BITMAP
78
70
70
70
ENDCHAR
STARTCHAR char9487
ENCODING 9487
SWIDTH 833 0
DWIDTH 5 0
BBX 5 5 0 -2
BITMAP
78
78
78
70
70
ENDCHAR
STARTCHAR char9488
ENCODING 9488
SWIDTH 833 0
DWIDTH 5 0
BBX 3 4 0 -2
BITMAP
E0
20
20
20
ENDCHAR
STARTCHAR char9489
ENCODING 9489
SWIDTH 833 0
DWIDTH 5 0
BBX 3 5 0 -2
BITMAP
E0
E0
E0
20
20
ENDCHAR
STARTCHAR char9490
ENCODING 9490
SWIDTH 833 0
DWIDTH 5 0
BBX 4 4 0 -2
BITMAP
F0
70
70
70
ENDCHAR
STARTCHAR char9491
ENCODING 9491
SWIDTH 833 0
DWIDTH 5 0
BBX 4 5 0 -2
BITMAP
F0
F0
F0
70
70
ENDCHAR
STARTCHAR char9492
ENCODING 9492
SWIDTH 833 0
DWIDTH 5 0
BBX 3 4 2 1
BITMAP
80
80
80
E0
ENDCHAR
STARTCHAR char9493
ENCODING 9493
SWIDTH 833 0
DWIDTH 5 0
BBX 3 5 2 0
BITMAP
80
80
E0
E0
E0
ENDCHAR
STARTCHAR char9494
ENCODING 9494
SWIDTH 833 0
DWIDTH 5 0
BBX 4 4 1 1
BITMAP
E0
E0
E0
F0
ENDCHAR
STARTCHAR char9495
ENCODING 9495
SWIDTH 833 0
DWIDTH 5 0
BBX 4 5 1 0
BITMAP
E0
E0
F0
F0
F0
ENDCHAR
STARTCHAR char9496
ENCODING 9496
SWIDTH 833 0
DWIDTH 5 0
BBX 3 4 0 1
BITMAP
20
20
20
E0
ENDCHAR
STARTCHAR char9497
ENCODING 9497
SWIDTH 833 0
DWIDTH 5 0
BBX 3 5 0 0
BITMAP
20
20
E0
E0
E0
ENDCHAR
STARTCHAR char9498
ENCODING 9498
SWIDTH 833 0
DWIDTH 5 0
BBX 4 4 0 1
BITMAP
70
70
70
F0
ENDCHAR
STARTCHAR char9499
ENCODING 9499
SWIDTH 833 0
DWIDTH 5 0
BBX 4 5 0 0
BITMAP
70
70
F0
F0
F0
ENDCHAR
STARTCHAR char9500
ENCODING 9500
SWIDTH 833 0
DWIDTH 5 0
BBX 5 7 0 -2
BITMAP
20
20
20
38
20
20
20
ENDCHAR
STARTCHAR char9501
ENCODING 9501
SWIDTH 833 0
DWIDTH 5 0
BBX 5 7 0 -2
BITMAP
20
20
38
38
38
20
20
ENDCHAR
STARTCHAR char9502
ENCODING 9502
SWIDTH 833 0
DWIDTH 5 0
BBX 5 7 0 -2
BITMAP
70
70
70
78
20
20
20
ENDCHAR
STARTCHAR char9503
ENCODING 9503
SWIDTH 833 0
DWIDTH 5 0
BBX 5 7 1 -2
BITMAP
40
40
40
F0
E0
E0
E0
ENDCHAR
STARTCHAR char9504
ENCODING 9504
SWIDTH 833 0
DWIDTH 5 0
BBX 5 7 0 -2
BITMAP
70
70
70
78
70
70
70
ENDCHAR
STARTCHAR char9505
ENCODING 9505
SWIDTH 833 0
DWIDTH 5 0
BBX 4 7 1 -2
BITMAP
E0
E0
F0
F0
F0
40
40
ENDCHAR
STARTCHAR char9506
ENCODING 9506
SWIDTH 833 0
DWIDTH 5 0
BBX 5 7 0 -2
BITMAP
20
20
78
78
78
70
70
ENDCHAR
STARTCHAR char9507
ENCODING 9507
SWIDTH 833 0
DWIDTH 5 0
BBX 5 7 0 -2
BITMAP
70
70
78
78
78
70
70
ENDCHAR
STARTCHAR char9508
ENCODING 9508
SWIDTH 833 0
DWIDTH 5 0
BBX 3 7 0 -2
BITMAP
20
20
20
E0
20
20
20
ENDCHAR
STARTCHAR char9509
ENCODING 9509
SWIDTH 833 0
DWIDTH 5 0
BBX 3 7 0 -2
BITMAP
20
20
E0
E0
E0
20
20
ENDCHAR
STARTCHAR char9510
ENCODING 9510
SWIDTH 833 0
DWIDTH 5 0
BBX 4 7 0 -2
BITMAP
70
70
70
F0
20
20
20
ENDCHAR
STARTCHAR char9511
ENCODING 9511
SWIDTH 833 0
DWIDTH 5 0
BBX 4 7 0 -2
BITMAP
20
20
20
F0
70
70
70
ENDCHAR
STARTCHAR char9512
ENCODING 9512
SWIDTH 833 0
DWIDTH 5 0
BBX 4 7 0 -2
BITMAP
70
70
70
F0
70
70
70
ENDCHAR
STARTCHAR char9513
ENCODING 9513
SWIDTH 833 0
DWIDTH 5 0
BBX 4 7 0 -2
BITMAP
70
70
F0
F0
F0
20
20
ENDCHAR
STARTCHAR char9514
ENCODING 9514
SWIDTH 833 0
DWIDTH 5 0
BBX 4 7 0 -2
BITMAP
20
20
F0
F0
F0
70
70
ENDCHAR
STARTCHAR char9515
ENCODING 9515
SWIDTH 833 0
DWIDTH 5 0
BBX 4 7 0 -2
BITMAP
70
70
F0
F0
F0
70
70
ENDCHAR
STARTCHAR char9516
ENCODING 9516
SWIDTH 833 0
DWIDTH 5 0
BBX 5 4 0 -2
BITMAP
F8
20
20
20
ENDCHAR
STARTCHAR char9517
ENCODING 9517
SWIDTH 833 0
DWIDTH 5 0
BBX 5 5 0 -2
BITMAP
E0
F8
E0
20
20
ENDCHAR
STARTCHAR char9518
ENCODING 9518
SWIDTH 833 0
DWIDTH 5 0
BBX 5 5 0 -2
BITMAP
38
F8
38
20
20
ENDCHAR
STARTCHAR char9519
ENCODING 9519
SWIDTH 833 0
DWIDTH 5 0
BBX 5 5 0 -2
BITMAP
F8
F8
F8
20
20
ENDCHAR
STARTCHAR char9520
ENCODING 9520
SWIDTH 833 0
DWIDTH 5 0
BBX 5 4 0 -2
BITMAP
F8
70
70
70
ENDCHAR
STARTCHAR char9521
ENCODING 9521
SWIDTH 833 0
DWIDTH 5 0
BBX 5 5 0 -2
BITMAP
F0
F8
F0
70
70
ENDCHAR
STARTCHAR char9522
ENCODING 9522
SWIDTH 833 0
DWIDTH 5 0
BBX 5 5 0 -2
BITMAP
78
F8
78
70
70
ENDCHAR
STARTCHAR char9523
ENCODING 9523
SWIDTH 833 0
DWIDTH 5 0
BBX 5 5 0 -2
BITMAP
F8
F8
F8
70
70
ENDCHAR
STARTCHAR char9524
ENCODING 9524
SWIDTH 833 0
DWIDTH 5 0
BBX 5 4 0 1
BITMAP
20
20
20
F8
ENDCHAR
STARTCHAR char9525
ENCODING 9525
SWIDTH 833 0
DWIDTH 5 0
BBX 5 5 0 0
BITMAP
20
20
E0
F8
E0
ENDCHAR
STARTCHAR char9526
ENCODING 9526
SWIDTH 833 0
DWIDTH 5 0
BBX 5 5 0 0
BITMAP
20
20
38
F8
38
ENDCHAR
STARTCHAR char9527
ENCODING 9527
SWIDTH 833 0
DWIDTH 5 0
BBX 5 5 0 0
BITMAP
20
20
F8
F8
F8
ENDCHAR
STARTCHAR char9528
ENCODING 9528
SWIDTH 833 0
DWIDTH 5 0
BBX 5 4 0 1
BITMAP
70
70
70
F8
ENDCHAR
STARTCHAR char9529
ENCODING 9529
SWIDTH 833 0
DWIDTH 5 0
BBX 5 5 0 0
BITMAP
70
70
F0
F8
F0
ENDCHAR
STARTCHAR char9530
ENCODING 9530
SWIDTH 833 0
DWIDTH 5 0
BBX 5 5 0 0
BITMAP
70
70
78
F8
78
ENDCHAR
STARTCHAR char9531
ENCODING 9531
SWIDTH 833 0
DWIDTH 5 0
BBX 5 5 0 0
BITMAP
70
70
F8
F8
F8
ENDCHAR
STARTCHAR char9532
ENCODING 9532
SWIDTH 833 0
DWIDTH 5 0
BBX 5 7 0 -2
BITMAP
20
20
20
F8
20
20
20
ENDCHAR
STARTCHAR char9533
ENCODING 9533
SWIDTH 833 0
DWIDTH 5 0
BBX 5 7 0 -2
BITMAP
20
20
E0
F8
E0
20
20
ENDCHAR
STARTCHAR char9534
ENCODING 9534
SWIDTH 833 0
DWIDTH 5 0
BBX 5 7 0 -2
BITMAP
20
20
38
F8
38
20
20
ENDCHAR
STARTCHAR char9535
ENCODING 9535
SWIDTH 833 0
DWIDTH 5 0
BBX 5 7 0 -2
BITMAP
20
20
F8
F8
F8
20
20
ENDCHAR
STARTCHAR char9536
ENCODING 9536
SWIDTH 833 0
DWIDTH 5 0
BBX 5 7 0 -2
BITMAP
70
70
70
F8
20
20
20
ENDCHAR
STARTCHAR char9537
ENCODING 9537
SWIDTH 833 0
DWIDTH 5 0
BBX 5 7 0 -2
BITMAP
20
20
20
F8
70
70
70
ENDCHAR
STARTCHAR char9538
ENCODING 9538
SWIDTH 833 0
DWIDTH 5 0
BBX 5 7 0 -2
BITMAP
70
70
70
F8
70
70
70
ENDCHAR
STARTCHAR char9539
ENCODING 9539
SWIDTH 833 0
DWIDTH 5 0
BBX 5 7 0 -2
BITMAP
70
70
F0
F8
F0
20
20
ENDCHAR
STARTCHAR char9540
ENCODING 9540
SWIDTH 833 0
DWIDTH 5 0
BBX 5 7 0 -2
BITMAP
70
70
78
F8
78
20
20
ENDCHAR
STARTCHAR char9541
ENCODING 9541
SWIDTH 833 0
DWIDTH 5 0
BBX 5 7 0 -2
BITMAP
20
20
F0
F8
F0
70
70
ENDCHAR
STARTCHAR char9542
ENCODING 9542
SWIDTH 833 0
DWIDTH 5 0
BBX 5 7 0 -2
BITMAP
20
20
78
F8
78
70
70
ENDCHAR
STARTCHAR char9543
ENCODING 9543
SWIDTH 833 0
DWIDTH 5 0
BBX 5 7 0 -2
BITMAP
70
70
F8
F8
F8
20
20
ENDCHAR
STARTCHAR char9544
ENCODING 9544
SWIDTH 833 0
DWIDTH 5 0
BBX 5 7 0 -2
BITMAP
20
20
F8
F8
F8
70
70
ENDCHAR
STARTCHAR char9545
ENCODING 9545
SWIDTH 833 0
DWIDTH 5 0
BBX 5 7 0 -2
BITMAP
70
70
F0
F8
F0
70
70
ENDCHAR
STARTCHAR char9546
ENCODING 9546
SWIDTH 833 0
DWIDTH 5 0
BBX 5 7 0 -2
BITMAP
70
70
78
F8
78
70
70
ENDCHAR
STARTCHAR char9547
ENCODING 9547
SWIDTH 833 0
DWIDTH 5 0
BBX 5 7 0 -2
BITMAP
70
70
F8
F8
F8
70
70
ENDCHAR
STARTCHAR char9548
ENCODING 9548
SWIDTH 833 0
DWIDTH 5 0
BBX 5 1 0 1
BITMAP
D8
ENDCHAR
STARTCHAR char9549
ENCODING 9549
SWIDTH 833 0
DWIDTH 5 0
BBX 5 3 0 0
BITMAP
D8
D8
D8
ENDCHAR
STARTCHAR char9550
ENCODING 9550
SWIDTH 833 0
DWIDTH 5 0
BBX 1 7 2 -2
BITMAP
80
80
80
00
80
80
80
ENDCHAR
STARTCHAR char9551
ENCODING 9551
SWIDTH 833 0
DWIDTH 5 0
BBX 4 7 0 -2
BITMAP
70
70
70
00
70
70
70
ENDCHAR
STARTCHAR char9552
ENCODING 9552
SWIDTH 833 0
DWIDTH 5 0
BBX 5 3 0 0
BITMAP
F8
00
F8
ENDCHAR
STARTCHAR char9553
ENCODING 9553
SWIDTH 833 0
DWIDTH 5 0
BBX 4 7 0 -2
BITMAP
50
50
50
50
50
50
50
ENDCHAR
STARTCHAR char9554
ENCODING 9554
SWIDTH 833 0
DWIDTH 5 0
BBX 5 5 0 -2
BITMAP
38
20
38
20
20
ENDCHAR
STARTCHAR char9555
ENCODING 9555
SWIDTH 833 0
DWIDTH 5 0
BBX 5 4 0 -2
BITMAP
78
50
50
50
ENDCHAR
STARTCHAR char9556
ENCODING 9556
SWIDTH 833 0
DWIDTH 5 0
BBX 5 5 0 -2
BITMAP
78
40
58
50
50
ENDCHAR
STARTCHAR char9557
ENCODING 9557
SWIDTH 833 0
DWIDTH 5 0
BBX 3 5 0 -2
BITMAP
E0
20
E0
20
20
ENDCHAR
STARTCHAR char9558
ENCODING 9558
SWIDTH 833 0
DWIDTH 5 0
BBX 4 4 0 -2
BITMAP
F0
50
50
50
ENDCHAR
STARTCHAR char9559
ENCODING 9559
SWIDTH 833 0
DWIDTH 5 0
BBX 4 5 0 -2
BITMAP
F0
10
D0
50
50
ENDCHAR
STARTCHAR char9560
ENCODING 9560
SWIDTH 833 0
DWIDTH 5 0
BBX 5 5 0 0
BITMAP
20
20
38
20
38
ENDCHAR
STARTCHAR char9561
ENCODING 9561
SWIDTH 833 0
DWIDTH 5 0
BBX 4 4 1 1
BITMAP
A0
A0
A0
F0
ENDCHAR
STARTCHAR char9562
ENCODING 9562
SWIDTH 833 0
DWIDTH 5 0
BBX 4 5 1 0
BITMAP
A0
A0
B0
80
F0
ENDCHAR
STARTCHAR char9563
ENCODING 9563
SWIDTH 833 0
DWIDTH 5 0
BBX 3 5 0 0
BITMAP
20
20
E0
20
E0
ENDCHAR
STARTCHAR char9564
ENCODING 9564
SWIDTH 833 0
DWIDTH 5 0
BBX 4 4 0 1
BITMAP
50
50
50
F0
ENDCHAR
STARTCHAR char9565
ENCODING 9565
SWIDTH 833 0
DWIDTH 5 0
BBX 4 5 0 0
BITMAP
50
50
D0
10
F0
ENDCHAR
STARTCHAR char9566
ENCODING 9566
SWIDTH 833 0
DWIDTH 5 0
BBX 3 7 2 -2
BITMAP
80
80
E0
80
E0
80
80
ENDCHAR
STARTCHAR char9567
ENCODING 9567
SWIDTH 833 0
DWIDTH 5 0
BBX 4 7 1 -2
BITMAP
A0
A0
A0
B0
A0
A0
A0
ENDCHAR
STARTCHAR char9568
ENCODING 9568
SWIDTH 833 0
DWIDTH 5 0
BBX 5 7 0 -2
BITMAP
50
50
58
40
58
50
50
ENDCHAR
STARTCHAR char9569
ENCODING 9569
SWIDTH 833 0
DWIDTH 5 0
BBX 3 7 0 -2
BITMAP
20
20
E0
20
E0
20
20
ENDCHAR
STARTCHAR char9570
ENCODING 9570
SWIDTH 833 0
DWIDTH 5 0
BBX 4 7 0 -2
BITMAP
50
50
50
D0
50
50
50
ENDCHAR
STARTCHAR char9571
ENCODING 9571
SWIDTH 833 0
DWIDTH 5 0
BBX 4 7 0 -2
BITMAP
50
50
D0
10
D0
50
50
ENDCHAR
STARTCHAR char9572
ENCODING 9572
SWIDTH 833 0
DWIDTH 5 0
BBX 5 5 0 -2
BITMAP
F8
00
F8
20
20
ENDCHAR
STARTCHAR char9573
ENCODING 9573
SWIDTH 833 0
DWIDTH 5 0
BBX 5 4 0 -2
BITMAP
F8
50
50
50
ENDCHAR
STARTCHAR char9574
ENCODING 9574
SWIDTH 833 0
DWIDTH 5 0
BBX 5 5 0 -2
BITMAP
F8
00
D8
50
50
ENDCHAR
STARTCHAR char9575
ENCODING 9575
SWIDTH 833 0
DWIDTH 5 0
BBX 5 5 0 0
BITMAP
20
20
F8
00
F8
ENDCHAR
STARTCHAR char9576
ENCODING 9576
SWIDTH 833 0
DWIDTH 5 0
BBX 5 4 0 1
BITMAP
50
50
50
F8
ENDCHAR
STARTCHAR char9577
ENCODING 9577
SWIDTH 833 0
DWIDTH 5 0
BBX 5 5 0 0
BITMAP
50
50
D8
00
F8
ENDCHAR
STARTCHAR char9578
ENCODING 9578
SWIDTH 833 0
DWIDTH 5 0
BBX 5 7 0 -2
BITMAP
20
20
F8
00
F8
20
20
ENDCHAR
STARTCHAR char9579
ENCODING 9579
SWIDTH 833 0
DWIDTH 5 0
BBX 5 7 0 -2
BITMAP
50
50
50
D8
50
50
50
ENDCHAR
STARTCHAR char9580
ENCODING 9580
SWIDTH 833 0
DWIDTH 5 0
BBX 5 7 0 -2
BITMAP
50
50
D8
00
D8
50
50
ENDCHAR
STARTCHAR char9581
ENCODING 9581
SWIDTH 833 0
DWIDTH 5 0
BBX 5 4 0 -2
BITMAP
18
20
20
20
ENDCHAR
STARTCHAR char9582
ENCODING 9582
SWIDTH 833 0
DWIDTH 5 0
BBX 3 4 0 -2
BITMAP
C0
20
20
20
ENDCHAR
STARTCHAR char9583
ENCODING 9583
SWIDTH 833 0
DWIDTH 5 0
BBX 3 4 0 1
BITMAP
20
20
20
C0
ENDCHAR
STARTCHAR char9584
ENCODING 9584
SWIDTH 833 0
DWIDTH 5 0
BBX 3 4 2 1
BITMAP
80
80
80
60
ENDCHAR
STARTCHAR char9585
ENCODING 9585
SWIDTH 833 0
DWIDTH 5 0
BBX 5 7 0 -2
BITMAP
08
10
10
20
40
40
80
ENDCHAR
STARTCHAR char9586
ENCODING 9586
SWIDTH 833 0
DWIDTH 5 0
BBX 5 7 0 -2
BITMAP
80
40
40
20
10
10
08
ENDCHAR
STARTCHAR char9587
ENCODING 9587
SWIDTH 833 0
DWIDTH 5 0
BBX 5 7 0 -2
BITMAP
88
50
50
20
50
50
88
ENDCHAR
STARTCHAR char9588
ENCODING 9588
SWIDTH 833 0
DWIDTH 5 0
BBX 3 1 0 1
BITMAP
E0
ENDCHAR
STARTCHAR char9589
ENCODING 9589
SWIDTH 833 0
DWIDTH 5 0
BBX 1 4 2 1
BITMAP
80
80
80
80
ENDCHAR
STARTCHAR char9590
ENCODING 9590
SWIDTH 833 0
DWIDTH 5 0
BBX 3 1 2 1
BITMAP
E0
ENDCHAR
STARTCHAR char9591
ENCODING 9591
SWIDTH 833 0
DWIDTH 5 0
BBX 3 4 0 -2
BITMAP
20
20
20
20
ENDCHAR
STARTCHAR char9592
ENCODING 9592
SWIDTH 833 0
DWIDTH 5 0
BBX 3 3 0 0
BITMAP
E0
E0
E0
ENDCHAR
STARTCHAR char9593
ENCODING 9593
SWIDTH 833 0
DWIDTH 5 0
BBX 3 4 1 1
BITMAP
E0
E0
E0
E0
ENDCHAR
STARTCHAR char9594
ENCODING 9594
SWIDTH 833 0
DWIDTH 5 0
BBX 5 3 0 0
BITMAP
38
38
38
ENDCHAR
STARTCHAR char9595
ENCODING 9595
SWIDTH 833 0
DWIDTH 5 0
BBX 4 4 0 -2
BITMAP
70
70
70
70
ENDCHAR
STARTCHAR char9596
ENCODING 9596
SWIDTH 833 0
DWIDTH 5 0
BBX 5 3 0 0
BITMAP
38
F8
38
ENDCHAR
STARTCHAR char9597
ENCODING 9597
SWIDTH 833 0
DWIDTH 5 0
BBX 4 7 0 -2
BITMAP
20
20
20
70
70
70
70
ENDCHAR
STARTCHAR char9598
ENCODING 9598
SWIDTH 833 0
DWIDTH 5 0
BBX 5 3 0 0
BITMAP
E0
F8
E0
ENDCHAR
STARTCHAR char9599
ENCODING 9599
SWIDTH 833 0
DWIDTH 5 0
BBX 5 3 0 0
BITMAP
38
F8
38
ENDCHAR
ENDFONT
